<svg width="499" height="500" viewBox="0 0 499 500" fill="none" xmlns="http://www.w3.org/2000/svg">
  <g clip-path="url(#clip0_1_1128)">
    <path d="M249.994 255.707C246.848 255.707 244.281 253.152 244.281 249.994C244.281 246.835 246.835 244.281 249.994 244.281C253.152 244.281 255.707 246.835 255.707 249.994C255.707 253.152 253.152 255.707 249.994 255.707Z" stroke="#1D1D1B" stroke-width="0.5" stroke-miterlimit="10" />
    <path d="M497.735 218.649C497.269 214.962 494.79 211.829 491.305 210.545L482.459 207.286C479.3 206.128 476.935 203.448 476.217 200.151C474.72 193.331 472.933 186.611 470.844 180.03C469.825 176.822 470.542 173.323 472.694 170.744L478.722 163.521C481.1 160.664 481.691 156.713 480.244 153.278C476.23 143.74 471.574 134.34 466.264 125.142C460.954 115.943 455.14 107.223 448.899 98.9682C446.646 95.9985 442.947 94.5263 439.273 95.168L429.936 96.7787C426.626 97.345 423.241 96.2125 420.964 93.7335C416.295 88.6247 411.388 83.7172 406.279 79.0487C403.8 76.7837 402.668 73.3988 403.234 70.0768L404.845 60.7399C405.474 57.0782 404.001 53.3661 401.044 51.1137C392.79 44.8597 384.069 39.0588 374.871 33.7486C365.673 28.4384 356.285 23.7826 346.747 19.7685C343.312 18.3214 339.373 18.9002 336.504 21.2911L329.281 27.3185C326.702 29.4702 323.204 30.1749 319.995 29.1683C313.414 27.0794 306.694 25.2926 299.874 23.7951C296.59 23.0779 293.91 20.6996 292.739 17.5412L289.48 8.6951C288.197 5.19692 285.064 2.73058 281.377 2.265C271.109 0.981494 260.639 0.314575 250.019 0.314575C239.398 0.314575 228.942 0.981494 218.661 2.265C214.974 2.73058 211.841 5.20951 210.557 8.6951L207.298 17.5412C206.141 20.6996 203.46 23.0653 200.164 23.7826C193.343 25.28 186.624 27.0668 180.043 29.1557C176.834 30.1749 173.336 29.4577 170.756 27.3059L163.533 21.2785C160.677 18.9002 156.726 18.3214 153.291 19.7559C143.752 23.77 134.353 28.4258 125.154 33.736C115.956 39.0462 107.235 44.8597 98.9807 51.1011C96.0111 53.3535 94.5388 57.053 95.1806 60.7273L96.7912 70.0642C97.3575 73.3736 96.225 76.7586 93.7461 79.0236C88.6372 83.692 83.7297 88.5995 79.0613 93.7084C76.7963 96.1873 73.4113 97.3198 70.0893 96.7535L60.7525 95.1429C57.0907 94.5137 53.3786 95.986 51.1262 98.9431C44.8723 107.198 39.0713 115.918 33.7612 125.116C28.451 134.315 23.7951 143.702 19.781 153.24C18.334 156.676 18.9128 160.614 21.3036 163.483L27.3311 170.706C29.4828 173.286 30.1875 176.784 29.1808 179.993C27.1046 186.574 25.3051 193.293 23.8077 200.113C23.0905 203.398 20.7248 206.078 17.5664 207.248L8.72027 210.507C5.2221 211.791 2.75576 214.924 2.29017 218.611C1.00667 228.879 0.339752 239.348 0.339752 249.969C0.339752 260.589 1.00667 271.046 2.29017 281.314C2.75576 285.001 5.23468 288.134 8.72027 289.418L17.5664 292.677C20.7248 293.834 23.0905 296.515 23.8203 299.811C25.3177 306.632 27.1046 313.351 29.1934 319.932C30.2127 323.141 29.4954 326.639 27.3436 329.219L21.3288 336.442C18.9505 339.298 18.3717 343.249 19.8062 346.685C23.8203 356.223 28.4762 365.622 33.7863 374.821C39.0965 384.019 44.91 392.74 51.1514 400.994C53.4038 403.964 57.1033 405.436 60.7776 404.795L70.1145 403.184C73.4239 402.618 76.8089 403.75 79.0739 406.229C83.7549 411.338 88.6498 416.245 93.7587 420.914C96.2376 423.179 97.3701 426.564 96.8038 429.886L95.1932 439.223C94.564 442.884 96.0362 446.597 98.9933 448.849C107.248 455.103 115.968 460.904 125.167 466.214C134.365 471.524 143.752 476.18 153.291 480.194C156.726 481.641 160.664 481.062 163.533 478.671L170.756 472.644C173.336 470.492 176.834 469.788 180.043 470.794C186.624 472.883 193.343 474.67 200.164 476.167C203.448 476.885 206.128 479.263 207.298 482.421L210.557 491.267C211.841 494.766 214.974 497.232 218.661 497.698C228.929 498.981 239.398 499.648 250.019 499.648C260.639 499.648 271.096 498.981 281.364 497.698C285.051 497.232 288.184 494.753 289.468 491.267L292.727 482.421C293.884 479.263 296.565 476.897 299.862 476.18C306.682 474.683 313.401 472.896 319.982 470.807C323.191 469.788 326.689 470.505 329.269 472.657L336.492 478.684C339.348 481.062 343.299 481.641 346.735 480.207C356.273 476.193 365.673 471.537 374.871 466.227C384.069 460.916 392.79 455.103 401.044 448.861C404.014 446.609 405.486 442.91 404.845 439.235L403.234 429.898C402.668 426.589 403.8 423.204 406.279 420.939C411.388 416.271 416.295 411.363 420.964 406.254C423.229 403.775 426.614 402.643 429.936 403.209L439.273 404.82C442.934 405.449 446.646 403.977 448.899 401.02C455.153 392.765 460.966 384.045 466.264 374.846C471.574 365.648 476.23 356.26 480.244 346.722C481.691 343.287 481.112 339.348 478.722 336.479L472.694 329.257C470.542 326.677 469.838 323.179 470.844 319.97C472.933 313.389 474.72 306.669 476.217 299.849C476.935 296.565 479.3 293.885 482.471 292.714L491.317 289.455C494.816 288.172 497.282 285.039 497.748 281.352C499.031 271.084 499.698 260.614 499.698 249.994C499.698 239.373 499.031 228.917 497.748 218.649H497.735Z" stroke="#1D1D1B" stroke-width="0.5" stroke-miterlimit="10" />
    <path d="M497.736 218.649C497.27 214.962 494.791 211.829 491.305 210.545L482.459 207.286C479.301 206.128 476.935 203.448 476.218 200.151C474.721 193.331 472.934 186.611 470.845 180.03C469.826 176.822 470.543 173.323 472.695 170.744L478.722 163.521C481.1 160.664 481.679 156.713 480.245 153.278C476.231 143.74 471.575 134.34 466.265 125.142C460.954 115.943 455.141 107.223 448.899 98.9682C446.647 95.9985 442.947 94.5263 439.273 95.168L429.936 96.7787C426.627 97.345 423.242 96.2125 420.977 93.7335C416.308 88.6247 411.401 83.7172 406.292 79.0487C403.813 76.7837 402.681 73.3988 403.247 70.0768L404.858 60.7399C405.487 57.0782 404.015 53.3661 401.057 51.1137C392.803 44.8597 384.082 39.0588 374.884 33.7486C365.686 28.4384 356.298 23.7826 346.76 19.7685C343.325 18.3214 339.386 18.9002 336.517 21.2911L329.294 27.3185C326.715 29.4702 323.217 30.1749 320.008 29.1683C313.427 27.0794 306.707 25.2926 299.887 23.7951C296.603 23.0779 293.923 20.6996 292.752 17.5412L289.493 8.6951C288.21 5.19692 285.076 2.73058 281.389 2.265C271.121 0.981494 260.652 0.314575 250.032 0.314575C239.411 0.314575 228.955 0.981494 218.674 2.265C214.987 2.73058 211.854 5.20951 210.57 8.6951L207.311 17.5412C206.153 20.6996 203.473 23.0653 200.176 23.7826C193.356 25.28 186.637 27.0668 180.056 29.1557C176.847 30.1749 173.349 29.4577 170.769 27.3059L163.546 21.2785C160.69 18.9002 156.739 18.3214 153.303 19.7559C143.765 23.77 134.365 28.4258 125.167 33.736C115.968 39.0462 107.248 44.8597 98.9934 51.1011C96.0238 53.3535 94.5515 57.053 95.1933 60.7273L96.8039 70.0642C97.3828 73.3736 96.2377 76.7586 93.7588 79.0236C88.6499 83.692 83.7424 88.5995 79.074 93.7084C76.8089 96.1873 73.424 97.3198 70.102 96.7535L60.7651 95.1429C57.1034 94.5137 53.3913 95.986 51.1389 98.9431C44.8849 107.198 39.084 115.918 33.7738 125.116C28.4636 134.315 23.8078 143.702 19.7937 153.24C18.3466 156.676 18.9254 160.614 21.3162 163.483L27.3437 170.706C29.4954 173.286 30.2001 176.784 29.1934 179.993C27.1172 186.574 25.3178 193.293 23.8203 200.113C23.1031 203.398 20.7374 206.078 17.579 207.248L8.73287 210.507C5.23469 211.791 2.75577 214.924 2.30276 218.611C1.01926 228.879 0.352341 239.348 0.352341 249.969C0.352341 260.589 1.01926 271.046 2.30276 281.314C2.76835 285.001 5.24727 288.134 8.73287 289.418L17.579 292.677C20.7374 293.834 23.1031 296.515 23.8203 299.811C25.3178 306.632 27.1046 313.351 29.1934 319.932C30.2127 323.141 29.4954 326.639 27.3437 329.219L21.3162 336.442C18.938 339.298 18.3592 343.249 19.7937 346.685C23.8078 356.223 28.4636 365.622 33.7738 374.821C39.084 384.019 44.8975 392.74 51.1389 400.994C53.3913 403.964 57.0908 405.436 60.7651 404.795L70.102 403.184C73.4114 402.618 76.7964 403.75 79.0614 406.229C83.7298 411.338 88.6373 416.245 93.7462 420.914C96.2251 423.179 97.3576 426.564 96.7913 429.886L95.1807 439.223C94.5515 442.884 96.0238 446.597 98.9809 448.849C107.236 455.103 115.956 460.904 125.154 466.214C134.353 471.524 143.74 476.18 153.278 480.194C156.713 481.641 160.652 481.062 163.521 478.671L170.744 472.644C173.323 470.492 176.822 469.788 180.03 470.794C186.612 472.883 193.331 474.67 200.151 476.167C203.435 476.885 206.116 479.263 207.286 482.421L210.532 491.267C211.816 494.766 214.949 497.232 218.636 497.698C228.904 498.981 239.374 499.648 249.994 499.648C260.614 499.648 271.071 498.981 281.339 497.698C285.026 497.232 288.159 494.753 289.443 491.267L292.702 482.421C293.86 479.263 296.54 476.897 299.837 476.18C306.657 474.683 313.376 472.896 319.958 470.807C323.166 469.788 326.664 470.505 329.244 472.657L336.467 478.684C339.323 481.062 343.275 481.641 346.71 480.207C356.248 476.193 365.648 471.537 374.846 466.227C384.045 460.916 392.765 455.103 401.02 448.861C403.989 446.609 405.462 442.91 404.82 439.235L403.209 429.898C402.63 426.589 403.775 423.204 406.254 420.939C411.363 416.271 416.271 411.363 420.939 406.254C423.204 403.775 426.589 402.643 429.911 403.209L439.248 404.82C442.91 405.449 446.622 403.977 448.874 401.02C455.128 392.765 460.929 384.045 466.239 374.846C471.549 365.648 476.205 356.26 480.219 346.722C481.667 343.287 481.088 339.348 478.697 336.479L472.669 329.257C470.518 326.677 469.813 323.179 470.82 319.97C472.909 313.389 474.695 306.669 476.193 299.849C476.91 296.565 479.288 293.885 482.447 292.714L491.293 289.455C494.791 288.172 497.257 285.039 497.723 281.352C499.006 271.084 499.673 260.614 499.673 249.994C499.673 239.373 499.006 228.917 497.723 218.649H497.736ZM250.007 255.707C246.861 255.707 244.306 253.152 244.306 249.994C244.306 246.835 246.861 244.281 250.007 244.281C253.152 244.281 255.719 246.835 255.719 249.994C255.719 253.152 253.165 255.707 250.007 255.707Z" fill="black" />
    <path d="M339.21 408.67C337.737 409.513 336.253 409.916 334.73 409.865C333.207 409.815 331.785 409.375 330.464 408.544C329.143 407.714 328.036 406.531 327.167 404.995C326.299 403.46 325.821 401.925 325.771 400.377C325.72 398.83 326.06 397.383 326.79 396.049C327.532 394.715 328.627 393.633 330.087 392.79C331.282 392.098 332.478 391.72 333.648 391.67C334.818 391.619 335.913 391.871 336.907 392.437L331.634 383.277L334.868 381.414L347.527 403.397L344.633 405.071L342.947 402.919C342.871 403.913 342.557 404.933 342.028 405.977C341.5 407.021 340.543 407.927 339.21 408.695V408.67ZM338.165 405.524C339.549 404.731 340.405 403.599 340.745 402.126C341.085 400.654 340.808 399.169 339.939 397.672C339.059 396.149 337.901 395.168 336.479 394.727C335.045 394.287 333.648 394.476 332.251 395.269C330.867 396.061 329.999 397.194 329.646 398.653C329.294 400.113 329.558 401.611 330.439 403.133C331.018 404.127 331.723 404.895 332.578 405.436C333.434 405.977 334.34 406.254 335.321 406.279C336.303 406.304 337.247 406.052 338.153 405.524H338.165Z" fill="white" />
    <path d="M160.375 405.814C158.89 404.958 157.77 403.863 157.003 402.542C156.235 401.221 155.87 399.774 155.895 398.213C155.92 396.653 156.399 395.105 157.305 393.532C158.223 391.947 159.343 390.739 160.677 389.908C162.011 389.078 163.445 388.662 164.98 388.65C166.516 388.65 168.051 389.078 169.573 389.959C171.058 390.814 172.153 391.896 172.87 393.192C173.587 394.489 173.927 395.86 173.902 397.307C173.877 398.754 173.487 400.138 172.719 401.472C172.606 401.674 172.468 401.888 172.329 402.114C172.178 402.341 172.015 402.592 171.838 402.869L160.073 396.061C159.331 397.584 159.167 398.981 159.595 400.239C160.023 401.497 160.803 402.466 161.935 403.121C162.854 403.649 163.735 403.888 164.603 403.825C165.459 403.762 166.251 403.473 166.969 402.932L170.203 404.807C168.969 405.99 167.472 406.72 165.71 406.971C163.949 407.235 162.174 406.833 160.388 405.801L160.375 405.814ZM168.013 392.614C166.931 391.984 165.798 391.758 164.59 391.922C163.382 392.073 162.325 392.739 161.394 393.922L169.938 398.868C170.555 397.66 170.681 396.477 170.316 395.344C169.938 394.199 169.171 393.306 168.013 392.626V392.614Z" fill="white" />
    <path d="M248.962 429.03C247.477 429.03 246.256 428.778 245.3 428.287C244.344 427.796 243.626 427.142 243.148 426.324C242.683 425.519 242.444 424.625 242.444 423.669C242.444 421.983 243.111 420.637 244.419 419.655C245.74 418.674 247.615 418.183 250.057 418.183H254.637V417.868C254.637 416.509 254.272 415.49 253.53 414.798C252.787 414.118 251.831 413.779 250.661 413.779C249.629 413.779 248.723 414.03 247.968 414.534C247.2 415.037 246.735 415.779 246.571 416.773H242.834C242.947 415.503 243.387 414.42 244.13 413.514C244.872 412.608 245.803 411.916 246.948 411.438C248.094 410.96 249.339 410.721 250.698 410.721C253.139 410.721 255.027 411.363 256.373 412.646C257.707 413.93 258.374 415.679 258.374 417.881V428.627H255.128L254.813 425.632C254.322 426.601 253.605 427.406 252.661 428.061C251.718 428.715 250.484 429.042 248.962 429.042V429.03ZM249.704 425.997C250.711 425.997 251.567 425.758 252.259 425.28C252.951 424.802 253.492 424.16 253.882 423.355C254.272 422.562 254.511 421.681 254.612 420.712H250.459C248.974 420.712 247.93 420.964 247.301 421.48C246.672 421.996 246.37 422.637 246.37 423.417C246.37 424.21 246.672 424.839 247.263 425.305C247.867 425.771 248.672 425.997 249.717 425.997H249.704Z" fill="white" />
    <path d="M94.3249 342.305C93.7083 341.248 93.3812 340.179 93.3308 339.122C93.2805 338.065 93.507 337.071 93.9977 336.152L91.7327 337.058L90.2227 334.441L110.016 323.028L111.69 325.947L103.41 330.716C104.304 330.792 105.222 331.068 106.166 331.547C107.11 332.037 107.928 332.88 108.62 334.088C109.375 335.41 109.74 336.756 109.702 338.115C109.664 339.487 109.261 340.77 108.519 341.966C107.764 343.161 106.707 344.168 105.335 344.96C103.964 345.753 102.567 346.168 101.17 346.206C99.7609 346.244 98.4649 345.942 97.2694 345.288C96.074 344.633 95.0925 343.639 94.3249 342.293V342.305ZM96.5648 340.355C97.282 341.601 98.3013 342.381 99.6225 342.695C100.944 343.01 102.29 342.771 103.662 341.978C104.555 341.462 105.247 340.82 105.738 340.053C106.216 339.285 106.48 338.467 106.506 337.599C106.531 336.731 106.304 335.875 105.814 335.032C105.096 333.786 104.077 333.019 102.756 332.717C101.435 332.415 100.101 332.654 98.7417 333.434C97.3701 334.227 96.4767 335.271 96.0866 336.555C95.6965 337.838 95.8601 339.109 96.5773 340.355H96.5648Z" fill="white" />
    <path d="M97.9363 153.341C98.7165 152.007 99.698 150.988 100.919 150.283C102.127 149.579 103.448 149.239 104.857 149.264C106.279 149.289 107.688 149.704 109.098 150.522C110.507 151.34 111.577 152.359 112.307 153.567C113.036 154.775 113.401 156.097 113.389 157.493C113.389 158.89 112.999 160.262 112.218 161.608C111.25 163.294 109.991 164.452 108.443 165.094C106.896 165.723 105.285 165.773 103.586 165.245L105.348 162.2C106.204 162.451 107.022 162.388 107.802 162.011C108.582 161.633 109.224 161.017 109.702 160.174C110.117 159.456 110.318 158.701 110.306 157.884C110.306 157.078 110.054 156.285 109.589 155.518C109.11 154.75 108.368 154.083 107.361 153.505C106.355 152.926 105.398 152.611 104.505 152.586C103.611 152.561 102.794 152.737 102.089 153.127C101.372 153.517 100.805 154.071 100.39 154.788C99.8993 155.631 99.6854 156.487 99.7483 157.355C99.8112 158.223 100.176 158.966 100.83 159.595L99.0688 162.64C97.7853 161.482 97.0303 160.06 96.8038 158.387C96.5773 156.713 96.9422 155.04 97.9237 153.354L97.9363 153.341Z" fill="white" />
    <path d="M99.0688 166.037L101.183 167.938L102.252 166.088L103.486 166.805L102.252 168.932L104.002 170.517L105.121 168.579L106.355 169.297L105.084 171.486L107.173 173.386L106.418 174.682L104.329 172.782L102.819 175.4L104.908 177.3L104.153 178.596L102.064 176.708L101.057 178.445L99.8238 177.727L100.982 175.714L99.2324 174.129L98.1754 175.941L96.9422 175.223L98.1377 173.147L96.0237 171.234L96.7787 169.938L98.8927 171.851L100.403 169.234L98.2887 167.321L99.0437 166.025L99.0688 166.037ZM101.51 170.228L100 172.845L101.749 174.431L103.259 171.813L101.51 170.228Z" fill="white" />
    <path d="M67.6356 239.814H80.5462V237.574H83.3649V239.827H85.655C87.3664 239.827 88.5995 240.254 89.3545 241.123C90.1095 241.978 90.4745 243.186 90.4745 244.759V246.408H87.618V245.263C87.618 244.52 87.467 243.992 87.165 243.677C86.863 243.362 86.3471 243.199 85.6299 243.199H83.3774V246.81H80.5588V243.186H67.6482V239.814H67.6356Z" fill="white" />
    <path d="M79.5646 250.547L82.3455 251.139V249H83.7675V251.453L86.0702 251.944V249.717H87.4921V252.246L90.2479 252.85V254.348L87.4921 253.744V256.764L90.2479 257.368V258.865L87.4921 258.274V260.287H86.0702V257.972L83.7675 257.468V259.57H82.3455V257.179L79.5646 256.575V255.077L82.3455 255.681V252.661L79.5646 252.057V250.56V250.547ZM83.78 252.951V255.971L86.0828 256.474V253.442L83.78 252.951V252.951Z" fill="white" />
    <path d="M169.75 97.7602C170.467 97.3449 171.172 97.0555 171.876 96.8668L172.392 95.0296C172.115 95.0296 171.801 95.0547 171.461 95.1302C171.121 95.2057 170.656 95.3567 170.077 95.5958C169.498 95.8349 168.743 96.1747 167.774 96.6277C165.861 97.5085 164.301 97.8231 163.093 97.584C161.885 97.3449 160.929 96.6402 160.262 95.4574C159.796 94.6521 159.57 93.7587 159.582 92.7897C159.582 91.8208 159.922 90.8393 160.576 89.8704C161.231 88.9015 162.25 88.0081 163.672 87.1901C165.585 86.0954 167.334 85.5669 168.932 85.6046C170.53 85.6424 171.75 86.3974 172.606 87.8696C172.933 88.4359 173.109 89.0902 173.122 89.8201C173.147 90.5499 172.971 91.3552 172.593 92.2361C173.072 92.1857 173.512 92.1606 173.902 92.1983C174.292 92.2235 174.657 92.2738 174.997 92.3493L175.374 93.0037L174.405 96.7912C175.991 97.0932 177.224 97.9867 178.08 99.4715C178.596 100.365 178.86 101.321 178.847 102.303C178.847 103.297 178.558 104.241 177.992 105.159C177.425 106.078 176.557 106.858 175.4 107.525C174.632 107.965 173.852 108.267 173.059 108.431L167.975 111.363L166.868 109.438L169.209 107.902C168.34 107.399 167.636 106.694 167.107 105.776C166.579 104.857 166.314 103.913 166.327 102.932C166.327 101.95 166.616 101.007 167.183 100.101C167.749 99.1947 168.605 98.4019 169.762 97.735L169.75 97.7602ZM170.001 89.7446C169.548 88.9518 168.856 88.5617 167.938 88.5743C167.019 88.5743 166.025 88.8889 164.98 89.4929C163.974 90.0717 163.282 90.7638 162.904 91.544C162.527 92.3367 162.552 93.0917 162.955 93.7964C163.257 94.3249 163.735 94.6647 164.364 94.7905C165.006 94.9289 165.937 94.7024 167.157 94.111C168.063 93.658 168.894 93.2931 169.636 93.0162C170.077 92.299 170.303 91.6698 170.303 91.1287C170.303 90.5876 170.203 90.1221 169.976 89.7446H170.001ZM171.071 100.05C170.228 100.541 169.674 101.158 169.41 101.9C169.146 102.655 169.259 103.435 169.724 104.266C170.215 105.109 170.844 105.6 171.612 105.738C172.392 105.876 173.197 105.7 174.041 105.222C174.896 104.719 175.462 104.102 175.739 103.36C176.004 102.617 175.903 101.825 175.412 100.982C174.934 100.151 174.305 99.6728 173.525 99.5218C172.744 99.3708 171.927 99.547 171.058 100.05H171.071Z" fill="white" />
    <path d="M161.545 104.895L162.426 107.6L164.288 106.531L164.993 107.764L162.866 108.997L163.584 111.237L165.522 110.117L166.239 111.35L164.049 112.609L164.905 115.301L163.609 116.044L162.753 113.351L160.136 114.861L160.992 117.554L159.695 118.296L158.827 115.616L157.091 116.623L156.373 115.389L158.387 114.232L157.657 111.992L155.845 113.036L155.128 111.803L157.204 110.608L156.336 107.89L157.632 107.147L158.5 109.865L161.13 108.355L160.262 105.637L161.558 104.895H161.545ZM161.57 109.74L158.953 111.25L159.67 113.489L162.3 111.979L161.57 109.74V109.74Z" fill="white" />
    <path d="M343.148 92.5129C344.205 93.1295 345.023 93.8845 345.602 94.7779C346.168 95.6714 346.47 96.6403 346.508 97.6847L348.018 95.772L350.623 97.282L339.184 117.063L336.278 115.377L341.059 107.11C340.254 107.5 339.323 107.714 338.266 107.764C337.209 107.814 336.076 107.487 334.868 106.795C333.547 106.027 332.566 105.046 331.924 103.838C331.282 102.63 330.98 101.321 331.03 99.912C331.081 98.5026 331.496 97.1059 332.289 95.7343C333.081 94.3627 334.076 93.3057 335.271 92.5633C336.466 91.8208 337.75 91.4433 339.109 91.4056C340.468 91.3804 341.827 91.7453 343.161 92.5129H343.148ZM342.179 95.3316C340.933 94.6144 339.663 94.4382 338.366 94.8283C337.07 95.2184 336.026 96.0866 335.221 97.4708C334.705 98.3642 334.428 99.2702 334.39 100.176C334.352 101.082 334.541 101.925 334.956 102.68C335.372 103.448 336.001 104.077 336.844 104.555C338.09 105.272 339.361 105.436 340.657 105.033C341.953 104.631 342.985 103.75 343.777 102.403C344.57 101.032 344.822 99.6854 344.507 98.3768C344.205 97.0681 343.425 96.0489 342.179 95.3316V95.3316Z" fill="white" />
    <path d="M257.594 66.9938C259.117 66.9938 260.463 67.3587 261.621 68.076C262.778 68.7933 263.697 69.7748 264.351 71.0331C265.006 72.2789 265.333 73.7008 265.333 75.2863C265.333 76.8718 265.006 78.2811 264.339 79.5269C263.684 80.7601 262.766 81.7416 261.596 82.4462C260.425 83.1509 259.066 83.5032 257.544 83.5032C256.298 83.5032 255.203 83.2516 254.259 82.7734C253.316 82.2826 252.586 81.6031 252.057 80.7097V90.2353H248.685L248.71 67.3839H251.73L252.083 69.8251C252.586 69.0827 253.291 68.4283 254.184 67.8621C255.077 67.2958 256.21 67.0064 257.607 67.0064L257.594 66.9938ZM256.99 69.9132C255.556 69.9132 254.373 70.4039 253.454 71.398C252.536 72.3921 252.07 73.6756 252.07 75.2359C252.07 76.8215 252.523 78.105 253.442 79.099C254.36 80.0805 255.543 80.5713 256.977 80.5839C258.412 80.5839 259.607 80.0931 260.539 79.1116C261.47 78.1301 261.935 76.8466 261.935 75.2611C261.935 74.2293 261.721 73.2981 261.306 72.5054C260.891 71.7 260.299 71.0708 259.544 70.6178C258.789 70.1648 257.946 69.9383 256.99 69.9383V69.9132Z" fill="white" />
    <path d="M245.162 80.5587L244.57 83.3396H246.709V84.7615H244.256L243.765 87.0643H245.992V88.4862H243.463L242.859 91.242H241.361L241.965 88.4862H238.945L238.341 91.242H236.844L237.435 88.4862H235.435V87.0643H237.75L238.241 84.7615H236.139V83.3396H238.543L239.147 80.5587H240.644L240.04 83.3396H243.073L243.677 80.5587H245.174H245.162ZM242.758 84.7615H239.726L239.235 87.0643H242.255L242.746 84.7615H242.758Z" fill="white" />
    <path d="M409.274 162.149L398.088 168.592L399.207 170.542L396.766 171.952L395.646 170.001L393.671 171.146C392.186 172.002 390.902 172.241 389.82 171.876C388.738 171.511 387.807 170.643 387.027 169.284L386.196 167.85L388.675 166.428L389.241 167.422C389.606 168.064 390.009 168.441 390.437 168.567C390.865 168.693 391.381 168.567 392.01 168.215L393.96 167.095L392.148 163.961L394.589 162.552L396.401 165.685L407.588 159.243L409.262 162.162L409.274 162.149Z" fill="white" />
    <path d="M398.981 335.02C398.565 335.737 398.1 336.341 397.584 336.857L398.049 338.706C398.288 338.581 398.553 338.392 398.804 338.153C399.069 337.914 399.383 337.549 399.761 337.058C400.138 336.567 400.629 335.888 401.233 335.02C402.441 333.296 403.636 332.239 404.807 331.849C405.977 331.458 407.147 331.584 408.317 332.264C409.123 332.729 409.764 333.384 410.243 334.239C410.721 335.082 410.922 336.089 410.847 337.259C410.771 338.43 410.331 339.713 409.513 341.122C408.405 343.023 407.16 344.356 405.75 345.124C404.341 345.892 402.907 345.841 401.447 344.998C400.881 344.671 400.402 344.193 400.025 343.564C399.647 342.934 399.396 342.154 399.283 341.211C398.892 341.5 398.528 341.726 398.163 341.903C397.798 342.079 397.471 342.217 397.131 342.318L396.476 341.94L395.432 338.178C393.897 338.706 392.387 338.543 390.915 337.687C390.021 337.171 389.317 336.479 388.826 335.624C388.335 334.768 388.109 333.799 388.146 332.717C388.184 331.635 388.536 330.527 389.203 329.37C389.644 328.602 390.172 327.948 390.776 327.419L393.721 322.336L395.646 323.443L394.388 325.934C395.394 325.934 396.351 326.199 397.269 326.727C398.188 327.256 398.88 327.948 399.371 328.803C399.849 329.659 400.075 330.615 400.05 331.685C400.012 332.755 399.673 333.862 399.006 335.02H398.981ZM396.703 333.698C397.194 332.855 397.357 332.05 397.219 331.257C397.068 330.477 396.59 329.848 395.759 329.37C394.916 328.879 394.123 328.778 393.381 329.042C392.639 329.307 392.022 329.86 391.544 330.703C391.04 331.559 390.864 332.377 391.003 333.157C391.141 333.937 391.632 334.567 392.475 335.057C393.305 335.535 394.086 335.636 394.841 335.372C395.596 335.108 396.212 334.554 396.716 333.686L396.703 333.698ZM402.781 342.091C403.573 342.544 404.354 342.544 405.159 342.079C405.952 341.613 406.656 340.858 407.26 339.814C407.839 338.807 408.104 337.863 408.028 336.995C407.953 336.127 407.562 335.485 406.858 335.07C406.329 334.768 405.75 334.705 405.134 334.919C404.517 335.133 403.825 335.787 403.045 336.907C402.479 337.75 401.95 338.48 401.447 339.097C401.422 339.94 401.548 340.594 401.812 341.072C402.076 341.55 402.403 341.89 402.781 342.117V342.091Z" fill="white" />
    <path d="M428.98 249.742C428.98 251.29 428.627 252.661 427.935 253.882C427.231 255.103 426.262 256.046 425.028 256.738C423.783 257.431 422.361 257.77 420.725 257.77C419.102 257.77 417.667 257.431 416.421 256.738C415.188 256.046 414.219 255.103 413.515 253.882C412.81 252.661 412.47 251.29 412.47 249.742C412.47 247.792 412.986 246.168 413.993 244.835C415.012 243.513 416.384 242.658 418.12 242.28V245.804C417.252 246.017 416.572 246.483 416.082 247.2C415.591 247.918 415.352 248.761 415.352 249.742C415.352 250.573 415.553 251.328 415.968 252.032C416.384 252.737 416.988 253.291 417.78 253.718C418.573 254.146 419.555 254.348 420.712 254.36C421.87 254.36 422.852 254.146 423.644 253.731C424.437 253.303 425.054 252.75 425.469 252.057C425.897 251.365 426.111 250.598 426.111 249.767C426.111 248.798 425.872 247.943 425.381 247.225C424.89 246.508 424.211 246.043 423.317 245.829V242.305C425.016 242.67 426.375 243.513 427.407 244.847C428.439 246.181 428.954 247.817 428.954 249.767L428.98 249.742Z" fill="white" />
    <path d="M320.737 110.784L319.831 110.255L323.468 103.976C320.7 103.913 320.372 102.605 320.347 102.177C320.247 100.591 322.663 98.7794 326.903 98.5026L327.885 98.4397L320.737 110.797V110.784ZM325.959 99.6477C322.826 100.076 321.341 101.397 321.379 102.101C321.404 102.567 322.348 102.982 324.059 102.919L325.947 99.6477H325.959Z" fill="white" stroke="white" stroke-width="0.25" stroke-miterlimit="10" />
    <path d="M262.2 45.4511C258.915 46.9108 254.964 47.6532 250.409 47.6532C244.86 47.6532 240.544 46.0928 237.448 42.947C234.302 39.8012 232.755 35.4221 232.767 29.8351C232.767 24.0971 234.378 19.6804 237.473 16.6352C240.619 13.5397 245.086 11.9919 250.862 11.9919C254.574 11.9919 258.236 12.4701 261.898 13.3132V18.8625C257.758 17.4028 254.285 16.6478 251.466 16.6478C247.892 16.6478 245.124 17.818 243.199 20.0705C241.274 22.3229 240.279 25.5694 240.279 29.7471C240.279 33.8366 241.311 37.0328 243.413 39.3356C245.476 41.6383 248.396 42.7708 252.095 42.7708C255.43 42.7708 258.815 41.9277 262.2 40.2416V45.4637V45.4511Z" fill="#FFCF05" />
    <path d="M362.074 79.7031C357.871 78.5203 354.41 77.1864 351.73 75.6261C346.646 72.6942 343.551 69.1205 342.356 64.8925C341.185 60.6267 342.003 56.0086 344.872 51.0382C347.741 46.0677 351.302 43.0855 355.581 41.9781C359.834 40.9085 364.477 41.7894 369.523 44.7087C372.732 46.5585 375.676 48.7983 378.432 51.3653L375.664 56.1722C372.732 52.7998 370.102 50.409 367.736 49.05C364.603 47.238 361.621 46.8731 358.802 47.9049C355.971 48.8738 353.467 51.2269 351.378 54.8509C349.339 58.3869 348.635 61.6711 349.314 64.7289C349.994 67.7741 351.894 70.2278 355.103 72.0902C355.795 72.4928 356.65 72.8829 357.707 73.2101L363.294 63.5209L369.397 67.0442L362.086 79.7031H362.074Z" fill="#FFCF05" />
    <path d="M360.488 418.938L378.294 449.842L367.787 455.895C364.666 457.694 361.973 458.449 359.683 458.235C357.368 457.971 355.568 456.738 354.297 454.511C352.158 450.786 353.127 446.759 357.179 442.317C350.623 444.268 346.068 443.085 343.627 438.857C342.192 436.378 341.966 434 342.872 431.722C343.815 429.407 345.879 427.368 349.05 425.544L360.501 418.95L360.488 418.938ZM364.817 440.468L363.282 441.348C361.482 442.38 360.274 443.651 359.771 445.136C359.217 446.646 359.356 448.169 360.237 449.704C361.055 451.113 362.049 451.856 363.194 451.868C364.339 451.893 366.113 451.214 368.504 449.83L369.787 449.087L364.817 440.455V440.468ZM356.965 426.827L355.593 427.62C352.901 429.168 351.164 430.514 350.485 431.697C349.78 432.842 349.881 434.214 350.774 435.749C351.68 437.334 353.102 438.215 355.09 438.505C357.053 438.744 359.092 438.24 361.193 437.045L362.426 436.328L356.952 426.84L356.965 426.827Z" fill="#FFCF05" />
    <path d="M140.921 80.2189L123.116 49.3142L142.557 38.115L144.998 42.343L132.012 49.8301L137.436 59.2299L148.119 53.0766L150.585 57.3549L139.902 63.5082L147.389 76.5068L140.934 80.2189H140.921Z" fill="#FFCF05" />
    <path d="M417.592 136.353L448.484 118.523L456.147 131.811C458.903 136.593 459.746 141.009 458.702 145.023C457.594 149.025 454.662 152.422 449.868 155.191C444.784 158.123 440.066 159.029 435.687 157.972C431.308 156.915 427.734 153.97 424.928 149.1L417.579 136.379L417.592 136.353ZM425.721 140.267L428.476 145.049C430.427 148.421 432.78 150.422 435.624 151C438.468 151.579 441.752 150.761 445.602 148.547C448.547 146.848 450.611 144.797 451.819 142.343C452.649 140.619 452.901 138.983 452.674 137.41C452.485 135.812 451.642 133.736 450.233 131.308L447.993 127.419L425.733 140.267H425.721Z" fill="#FFCF05" />
    <path d="M430.2 340.342L461.08 358.21L449.918 377.501L445.69 375.059L453.127 362.212L444.495 357.216L438.392 367.761L434.252 365.37L440.355 354.825L430.88 349.339L422.877 363.168L418.472 360.626L430.2 340.355V340.342Z" fill="#FFCF05" />
    <path d="M452.712 231.458L488.373 245.35V252.8L452.687 266.629V259.029L462.212 255.342V240.594L452.712 236.882V231.458V231.458ZM466.969 242.418V253.517L481.176 247.955L466.969 242.418Z" fill="#FFCF05" />
    <path d="M165.396 431.975L147.565 462.867L134.277 455.204C129.495 452.448 126.564 449.038 125.456 445.036C124.412 441.022 125.255 436.605 128.023 431.824C130.955 426.74 134.592 423.594 138.908 422.336C143.224 421.065 147.804 421.832 152.674 424.639L165.396 431.987V431.975ZM156.411 432.654L151.63 429.898C148.257 427.948 145.212 427.394 142.469 428.313C139.713 429.232 137.272 431.585 135.057 435.423C133.359 438.367 132.591 441.173 132.78 443.904C132.931 445.816 133.522 447.352 134.504 448.61C135.46 449.906 137.234 451.265 139.675 452.674L143.564 454.914L156.411 432.654V432.654Z" fill="#FFCF05" />
    <path d="M84.2708 367.22L46.4452 373.021L42.7331 366.566L66.717 336.756L70.5046 343.337L64.0997 351.29L71.4609 364.062L81.5528 362.514L84.2582 367.22H84.2708ZM66.4527 364.854L60.9161 355.241L51.3905 367.157L66.4653 364.854H66.4527Z" fill="#FFCF05" />
    <path d="M256.235 467.245C258.286 466.729 260.06 466.452 261.558 466.452C264.402 466.452 266.566 467.207 268.088 468.692C269.611 470.19 270.379 472.341 270.379 475.11C270.379 477.891 269.598 480.005 268.076 481.502C266.553 482.974 264.389 483.729 261.57 483.729C259.771 483.729 257.997 483.503 256.222 483.088V480.407C258.273 481.112 259.96 481.477 261.281 481.477C263.03 481.477 264.376 480.911 265.307 479.791C266.264 478.696 266.742 477.11 266.742 475.084C266.742 473.059 266.239 471.561 265.219 470.441C264.2 469.321 262.803 468.755 261.017 468.755C260.626 468.755 260.173 468.805 259.645 468.919V474.33H256.222V467.245H256.235Z" fill="#FFCF05" />
    <path d="M249.239 449.994V467.271H238.354V464.905H245.615V459.645H239.65V457.254H245.627V449.994H249.239V449.994Z" fill="#FFCF05" />
    <path d="M118.258 444.382L117.126 443.727L121.669 435.875C118.208 435.8 117.805 434.164 117.768 433.623C117.629 431.647 120.662 429.382 125.959 429.03L127.18 428.942L118.246 444.382H118.258ZM124.802 430.465C120.888 431.006 119.013 432.654 119.076 433.535C119.114 434.126 120.259 434.642 122.436 434.554L124.802 430.465Z" fill="#FFCF05" />
    <path d="M38.0647 357.494L37.36 356.273L45.0988 351.818C42.2046 350.019 42.6702 348.408 42.9093 347.918C43.7901 346.118 47.5526 345.665 52.3217 348.006L53.5045 348.585L38.0521 357.494H38.0647ZM46.3571 347.817C45.1491 347.817 44.3816 348.132 44.1802 348.534C43.9789 348.937 44.4571 349.918 46.5207 351.001L50.4719 348.723C48.8235 348.069 47.4267 347.817 46.3571 347.817V347.817Z" fill="#FFCF05" />
    <path d="M49.805 263.357L14.7855 263.332L14.8106 241.437H19.6049L19.5923 256.021H29.3822V244.067H34.0758V256.034H44.8345L44.8471 240.355H49.8427L49.8176 263.357H49.805Z" fill="#FFCF05" />
    <path d="M33.3333 238.643H15.4901V237.335H24.5753C22.9017 234.302 24.1097 233.132 24.5753 232.83C26.2112 231.723 29.6967 233.22 32.6538 237.624L33.3333 238.631V238.643ZM26.0979 237.335H30.8418C28.4132 234.201 26.0476 233.409 25.2926 233.899C24.8018 234.227 24.9276 235.498 26.0853 237.335H26.0979Z" fill="#FFCF05" />
    <path d="M70.0264 159.859L39.1342 142.028L45.1994 131.521C46.9988 128.401 48.9493 126.4 51.0507 125.443C53.1899 124.512 55.3668 124.688 57.5815 125.972C61.2935 128.124 62.4764 132.1 61.1929 137.964C65.8865 132.994 70.4291 131.735 74.6571 134.176C77.136 135.611 78.5202 137.549 78.8851 139.977C79.2248 142.456 78.4573 145.25 76.6327 148.421L70.0264 159.872V159.859ZM55.4926 143.387L56.386 141.852C57.4179 140.053 57.8331 138.354 57.5311 136.819C57.2543 135.233 56.3735 133.988 54.8383 133.094C53.429 132.276 52.1958 132.138 51.1891 132.704C50.1824 133.258 48.987 134.743 47.6029 137.133L46.8604 138.417L55.4926 143.4V143.387ZM69.1204 151.252L69.9132 149.88C71.4609 147.188 72.2914 145.162 72.2914 143.79C72.3292 142.444 71.5616 141.311 70.0138 140.43C68.4661 139.549 66.7547 139.461 64.905 140.216C63.093 140.997 61.5704 142.444 60.3624 144.545L59.6451 145.778L69.133 151.252H69.1204Z" fill="#FFCF05" />
    <path d="M69.3092 128.577L53.8694 119.655L54.5112 118.548L62.4135 123.103C62.4764 119.617 64.0997 119.215 64.6408 119.177C66.5912 119.039 68.8688 122.071 69.2337 127.369L69.3092 128.564V128.577ZM63.6844 123.858L67.8244 126.249C67.2833 122.285 65.6223 120.41 64.7163 120.461C64.1374 120.498 63.5838 121.58 63.6844 123.858V123.858Z" fill="#FFCF05" />
    <path d="M253.077 488.109H251.957V480.962C249.553 482.258 248.622 481.289 248.383 480.924C247.49 479.603 248.685 476.809 252.208 474.444L253.089 473.852V488.122L253.077 488.109ZM251.957 476.004C249.578 477.879 248.937 479.741 249.314 480.295C249.515 480.597 250.384 480.66 251.957 479.666V476.004Z" fill="#FFCF05" />
    <path d="M260.592 457.862L238.098 480.356L238.614 480.872L261.108 458.378L260.592 457.862Z" fill="#FFCF05" />
    <path d="M339.676 205.197L340.418 204.769L339.235 202.718L340.204 201.032L339.462 200.604L338.732 201.862L337.423 199.597L338.392 197.911L337.65 197.483L336.92 198.741L335.976 197.093L335.234 197.521L336.429 199.597L335.095 201.912L334.152 200.277L333.409 200.704L334.605 202.768L333.636 204.454L334.378 204.882L335.108 203.624L336.417 205.889L335.448 207.562L336.19 207.99L336.907 206.744L337.851 208.38L338.593 207.952L337.398 205.889L338.732 203.573L339.663 205.197H339.676ZM336.907 205.033L335.599 202.768L336.932 200.453L338.241 202.718L336.907 205.033Z" fill="#FFCF05" />
    <path d="M258.085 151.214H255.707L254.373 148.899H256.248V148.043H253.882L252.913 146.357L252.171 146.785L252.901 148.043H250.283L249.314 146.357L248.572 146.785L249.302 148.043H247.402V148.899H249.793L251.126 151.214H249.239V152.07H251.617L252.599 153.756L253.341 153.328L252.611 152.07H255.216L256.185 153.743L256.927 153.316L256.21 152.082H258.098V151.227L258.085 151.214ZM252.108 151.214L250.774 148.899H253.379L254.713 151.214H252.108Z" fill="#FFCF05" />
    <path d="M207.374 161.507L206.946 160.765L204.882 161.96L202.567 160.627L204.19 159.683L203.762 158.94L201.711 160.123L200.025 159.142L199.597 159.884L200.856 160.614L198.591 161.923L196.905 160.954L196.477 161.696L197.735 162.426L196.099 163.37L196.527 164.112L198.603 162.917L200.919 164.251L199.283 165.194L199.711 165.937L201.774 164.741L203.46 165.723L203.888 164.98L202.63 164.251L204.895 162.942L206.569 163.911L206.996 163.168L205.751 162.451L207.386 161.507H207.374ZM201.762 163.76L199.446 162.426L201.711 161.117L204.027 162.451L201.762 163.76Z" fill="#FFCF05" />
    <path d="M169.762 193.431V192.576H168.328L169.272 190.94L168.529 190.512L167.334 192.576H164.666L165.597 190.953L164.855 190.525L163.672 192.576H161.722V193.431H163.181L161.873 195.696H159.922V196.552H161.382L160.438 198.188L161.18 198.616L162.376 196.54H165.044L164.1 198.175L164.842 198.603L166.038 196.54H167.988V195.684H166.528L167.837 193.419H169.762V193.431ZM165.534 195.696H162.867L164.175 193.431H166.843L165.534 195.696Z" fill="#FFCF05" />
    <path d="M179.225 144.721L175.299 133.925L176.205 133.598L178.143 138.933C179.602 137.322 180.571 137.813 180.861 138.014C181.905 138.782 181.779 141.223 179.753 143.992L179.225 144.721V144.721ZM178.52 139.977L179.489 142.658C180.722 140.632 180.71 139.109 180.282 138.795C180.068 138.631 179.401 138.832 178.52 139.977Z" fill="#FFCF05" />
    <path d="M301.585 339.713C301.875 340.229 302.089 340.732 302.227 341.223L303.536 341.588C303.536 341.387 303.523 341.173 303.46 340.921C303.41 340.669 303.297 340.342 303.133 339.939C302.969 339.524 302.718 338.983 302.391 338.304C301.761 336.945 301.535 335.825 301.698 334.956C301.875 334.088 302.378 333.421 303.209 332.931C303.787 332.603 304.417 332.44 305.109 332.44C305.801 332.44 306.493 332.679 307.185 333.144C307.877 333.61 308.519 334.34 309.098 335.347C309.878 336.706 310.268 337.951 310.23 339.096C310.205 340.241 309.664 341.11 308.619 341.714C308.217 341.953 307.751 342.079 307.223 342.091C306.694 342.104 306.128 341.978 305.499 341.714C305.536 342.053 305.549 342.368 305.536 342.645C305.511 342.922 305.486 343.186 305.423 343.425L304.958 343.689L302.252 342.997C302.038 344.13 301.396 345.011 300.339 345.615C299.698 345.979 299.018 346.168 298.314 346.168C297.609 346.168 296.929 345.967 296.275 345.552C295.621 345.136 295.054 344.532 294.576 343.702C294.262 343.148 294.048 342.595 293.935 342.041L291.833 338.417L293.205 337.624L294.299 339.298C294.652 338.681 295.155 338.178 295.809 337.8C296.464 337.423 297.143 337.234 297.848 337.247C298.553 337.247 299.22 337.448 299.874 337.851C300.528 338.253 301.082 338.857 301.56 339.688L301.585 339.713ZM299.962 340.657C299.61 340.053 299.169 339.663 298.641 339.474C298.112 339.285 297.546 339.361 296.955 339.7C296.351 340.053 295.998 340.493 295.91 341.047C295.822 341.6 295.935 342.179 296.288 342.783C296.64 343.4 297.08 343.803 297.609 343.991C298.137 344.18 298.704 344.105 299.308 343.752C299.899 343.412 300.239 342.959 300.352 342.406C300.453 341.852 300.327 341.261 299.975 340.644L299.962 340.657ZM307.311 339.889C307.877 339.562 308.154 339.071 308.141 338.417C308.141 337.763 307.915 337.058 307.487 336.303C307.072 335.586 306.581 335.095 306.015 334.831C305.448 334.566 304.907 334.579 304.404 334.868C304.026 335.082 303.787 335.422 303.699 335.875C303.599 336.328 303.762 336.995 304.177 337.876C304.505 338.53 304.756 339.122 304.958 339.65C305.474 339.965 305.914 340.128 306.304 340.128C306.694 340.128 307.021 340.053 307.298 339.902L307.311 339.889Z" fill="#FFCF05" />
    <path d="M257.556 355.908C257.556 356.99 257.305 357.959 256.789 358.79C256.273 359.62 255.581 360.274 254.687 360.74C253.794 361.206 252.787 361.445 251.655 361.445C250.522 361.445 249.516 361.206 248.635 360.74C247.754 360.274 247.062 359.62 246.546 358.777C246.03 357.934 245.791 356.978 245.791 355.895C245.791 355.002 245.967 354.222 246.307 353.555C246.659 352.888 247.15 352.359 247.779 351.982H240.984V349.579H257.292V351.73L255.543 351.982C256.072 352.347 256.537 352.838 256.952 353.479C257.355 354.109 257.569 354.926 257.569 355.921L257.556 355.908ZM255.468 355.48C255.468 354.448 255.115 353.618 254.398 352.951C253.693 352.297 252.775 351.969 251.655 351.969C250.535 351.969 249.604 352.297 248.899 352.951C248.194 353.605 247.842 354.448 247.842 355.48C247.842 356.512 248.194 357.355 248.899 358.022C249.604 358.689 250.522 359.016 251.655 359.016C252.397 359.016 253.052 358.865 253.63 358.563C254.209 358.261 254.65 357.846 254.977 357.305C255.304 356.764 255.468 356.16 255.468 355.48V355.48Z" fill="#FFCF05" />
    <path d="M202.34 344.092C201.862 344.91 201.334 345.514 200.755 345.891C200.176 346.269 199.572 346.457 198.981 346.457C198.377 346.457 197.81 346.306 197.269 345.992C196.326 345.451 195.797 344.658 195.671 343.601C195.545 342.556 195.872 341.348 196.665 339.989L198.138 337.435L197.961 337.334C197.206 336.894 196.514 336.768 195.898 336.969C195.281 337.158 194.778 337.586 194.4 338.24C194.073 338.819 193.922 339.398 193.96 339.989C193.998 340.581 194.262 341.072 194.753 341.487L193.557 343.563C192.89 343.085 192.425 342.506 192.16 341.801C191.896 341.097 191.808 340.354 191.909 339.562C192.009 338.769 192.274 338.001 192.714 337.246C193.494 335.887 194.463 335.044 195.608 334.704C196.753 334.365 197.936 334.553 199.169 335.271L205.146 338.731L204.102 340.531L202.328 339.75C202.705 340.329 202.932 340.996 202.995 341.726C203.058 342.456 202.844 343.249 202.353 344.104L202.34 344.092ZM200.893 342.707C201.22 342.141 201.359 341.6 201.309 341.059C201.258 340.518 201.082 340.015 200.755 339.536C200.428 339.058 200.025 338.643 199.509 338.278L198.175 340.593C197.697 341.411 197.508 342.091 197.596 342.594C197.685 343.11 197.949 343.488 198.377 343.739C198.817 343.991 199.27 344.029 199.71 343.84C200.163 343.651 200.554 343.274 200.881 342.695L200.893 342.707Z" fill="#FFCF05" />
    <path d="M162.867 307.84C161.91 308.393 160.941 308.67 159.96 308.67C158.978 308.67 158.06 308.419 157.204 307.903C156.348 307.387 155.631 306.619 155.052 305.612C154.461 304.593 154.146 303.574 154.121 302.567C154.083 301.561 154.31 300.629 154.801 299.761C155.291 298.906 156.021 298.188 157.003 297.622C157.959 297.068 158.915 296.804 159.859 296.817C160.803 296.829 161.684 297.081 162.489 297.559C163.294 298.037 163.936 298.704 164.427 299.56C164.502 299.686 164.578 299.837 164.666 299.988C164.754 300.139 164.83 300.315 164.93 300.504L157.355 304.87C157.959 305.776 158.689 306.305 159.532 306.481C160.375 306.657 161.155 306.518 161.885 306.103C162.477 305.763 162.892 305.348 163.131 304.845C163.37 304.342 163.458 303.813 163.395 303.247L165.471 302.051C165.736 303.121 165.66 304.178 165.232 305.248C164.804 306.317 164.024 307.173 162.867 307.84V307.84ZM157.959 299.346C157.267 299.749 156.776 300.302 156.474 301.032C156.172 301.749 156.21 302.555 156.562 303.448L162.061 300.277C161.583 299.547 160.967 299.094 160.212 298.931C159.457 298.767 158.714 298.906 157.959 299.346V299.346Z" fill="#FFCF05" />
    <path d="M297.672 148.723C298.213 147.779 298.918 147.074 299.774 146.621C300.629 146.156 301.56 145.942 302.567 145.992C303.574 146.03 304.568 146.332 305.549 146.898C306.531 147.464 307.286 148.169 307.814 149.012C308.343 149.855 308.62 150.774 308.645 151.755C308.67 152.737 308.406 153.693 307.852 154.637C307.412 155.404 306.871 155.996 306.229 156.411C305.587 156.814 304.908 157.028 304.165 157.04L310.054 160.438L308.859 162.514L294.74 154.36L295.81 152.498L297.446 153.152C297.169 152.573 297.018 151.906 296.98 151.151C296.942 150.396 297.181 149.591 297.672 148.723V148.723ZM299.258 150.132C298.742 151.025 298.628 151.931 298.918 152.85C299.207 153.769 299.836 154.511 300.805 155.077C301.787 155.644 302.743 155.82 303.687 155.606C304.631 155.392 305.348 154.838 305.864 153.945C306.38 153.051 306.493 152.145 306.216 151.227C305.939 150.296 305.31 149.553 304.329 148.987C303.687 148.622 303.045 148.421 302.391 148.395C301.749 148.37 301.145 148.509 300.591 148.811C300.038 149.113 299.597 149.553 299.258 150.145V150.132Z" fill="#FFCF05" />
    <path d="M248.37 139.638C248.37 139.046 248.433 138.505 248.572 138.002L247.615 137.033C247.515 137.197 247.414 137.398 247.339 137.65C247.263 137.889 247.2 138.228 247.137 138.669C247.074 139.109 247.011 139.701 246.961 140.456C246.823 141.953 246.47 143.035 245.879 143.69C245.3 144.356 244.52 144.684 243.564 144.684C242.897 144.684 242.267 144.507 241.676 144.155C241.085 143.803 240.594 143.249 240.229 142.507C239.864 141.764 239.675 140.808 239.675 139.638C239.675 138.065 239.977 136.794 240.569 135.825C241.16 134.856 242.066 134.365 243.274 134.365C243.74 134.365 244.205 134.491 244.671 134.743C245.136 134.994 245.564 135.385 245.98 135.938C246.118 135.624 246.256 135.347 246.42 135.108C246.584 134.869 246.735 134.667 246.911 134.479H247.452L249.44 136.429C250.195 135.548 251.189 135.12 252.41 135.12C253.152 135.12 253.819 135.296 254.436 135.649C255.052 136.001 255.53 136.517 255.895 137.197C256.26 137.876 256.436 138.694 256.436 139.638C256.436 140.267 256.348 140.858 256.159 141.399V145.59H254.574L254.461 143.601C253.844 143.966 253.152 144.143 252.397 144.143C251.642 144.143 250.963 143.966 250.359 143.614C249.755 143.262 249.276 142.746 248.911 142.079C248.547 141.412 248.37 140.594 248.37 139.638V139.638ZM243.501 136.63C242.846 136.63 242.368 136.92 242.041 137.486C241.714 138.052 241.55 138.782 241.55 139.638C241.55 140.493 241.726 141.135 242.079 141.651C242.431 142.167 242.909 142.419 243.488 142.419C243.928 142.419 244.293 142.242 244.608 141.903C244.923 141.55 245.111 140.896 245.187 139.927C245.237 139.197 245.3 138.556 245.388 138.002C245.099 137.473 244.797 137.108 244.457 136.92C244.13 136.718 243.803 136.63 243.488 136.63H243.501ZM250.245 139.638C250.245 140.33 250.434 140.896 250.799 141.324C251.164 141.752 251.692 141.966 252.372 141.966C253.051 141.966 253.592 141.752 253.957 141.324C254.322 140.896 254.498 140.33 254.498 139.638C254.498 138.946 254.322 138.354 253.957 137.926C253.592 137.499 253.064 137.285 252.372 137.285C251.68 137.285 251.164 137.499 250.799 137.926C250.434 138.354 250.245 138.92 250.245 139.638Z" fill="#FFCF05" />
    <path d="M189.216 158.009C188.662 157.053 188.386 156.084 188.386 155.077C188.386 154.071 188.637 153.14 189.166 152.271C189.682 151.403 190.449 150.686 191.456 150.094C192.463 149.516 193.469 149.214 194.489 149.201C195.495 149.188 196.439 149.428 197.307 149.931C198.175 150.434 198.88 151.164 199.434 152.12C200.126 153.328 200.403 154.511 200.239 155.694C200.088 156.877 199.534 157.896 198.603 158.739L197.345 156.562C197.811 156.122 198.062 155.593 198.1 154.977C198.138 154.36 197.999 153.744 197.647 153.14C197.358 152.624 196.955 152.234 196.452 151.944C195.948 151.655 195.369 151.529 194.728 151.554C194.086 151.579 193.406 151.793 192.689 152.208C191.972 152.624 191.443 153.102 191.104 153.643C190.764 154.184 190.588 154.75 190.575 155.329C190.575 155.908 190.701 156.462 191.003 156.965C191.355 157.569 191.808 158.009 192.362 158.274C192.916 158.55 193.507 158.588 194.136 158.399L195.395 160.576C194.224 160.954 193.079 160.929 191.959 160.463C190.839 160.01 189.933 159.18 189.241 157.972L189.216 158.009Z" fill="#FFCF05" />
    <path d="M148.496 201.434L153.102 193.456L151.705 192.651L152.712 190.902L154.108 191.707L154.926 190.298C155.543 189.241 156.248 188.624 157.04 188.473C157.833 188.31 158.714 188.511 159.683 189.077L160.702 189.669L159.683 191.431L158.978 191.028C158.525 190.764 158.135 190.676 157.833 190.751C157.531 190.827 157.242 191.091 156.99 191.531L156.185 192.928L158.424 194.224L157.418 195.973L155.178 194.677L150.572 202.655L148.496 201.459V201.434Z" fill="#FFCF05" />
    <path d="M147.313 257.569C146.433 257.569 145.665 257.393 144.998 257.053C144.331 256.701 143.79 256.21 143.4 255.581L143.148 257.305H140.997V240.997H143.4V247.817C143.765 247.288 144.256 246.823 144.897 246.408C145.527 246.005 146.344 245.791 147.339 245.791C148.421 245.791 149.39 246.043 150.22 246.559C151.051 247.074 151.705 247.779 152.183 248.66C152.661 249.541 152.9 250.56 152.9 251.693C152.9 252.825 152.661 253.832 152.183 254.713C151.705 255.593 151.051 256.285 150.22 256.801C149.39 257.305 148.421 257.556 147.326 257.556L147.313 257.569ZM146.911 255.48C147.943 255.48 148.786 255.128 149.453 254.423C150.119 253.718 150.447 252.8 150.447 251.667C150.447 250.925 150.296 250.271 149.994 249.692C149.692 249.113 149.276 248.673 148.748 248.345C148.219 248.018 147.603 247.855 146.911 247.855C145.879 247.855 145.036 248.207 144.381 248.924C143.727 249.629 143.4 250.547 143.4 251.667C143.4 252.787 143.727 253.718 144.381 254.423C145.036 255.128 145.879 255.48 146.911 255.48V255.48Z" fill="#FFCF05" />
    <path d="M305.687 168.504V165.836L307.311 166.767L307.739 166.025L305.687 164.842V162.892H304.832V164.351L302.567 163.043V161.092H301.711V162.552L300.075 161.608L299.647 162.351L301.711 163.546V166.214L300.075 165.27L299.647 166.012L301.711 167.208V169.158H302.567V167.698L304.819 169.007V170.932H305.675V169.498L307.311 170.442L307.739 169.699L305.675 168.504H305.687ZM304.832 168.013L302.567 166.704V164.037L304.832 165.345V168.013Z" fill="#FFCF05" />
    <path d="M200.692 368.655L196.93 376.595L193.733 375.085C192.903 374.695 192.374 374.204 192.11 373.613C191.858 373.022 191.871 372.43 192.148 371.839C192.387 371.335 192.714 371.008 193.117 370.832C193.519 370.656 193.947 370.618 194.388 370.694C193.972 370.392 193.708 369.989 193.582 369.486C193.457 368.982 193.507 368.492 193.733 368.013C194.035 367.384 194.501 366.969 195.155 366.78C195.81 366.592 196.54 366.692 197.37 367.082L200.679 368.643L200.692 368.655ZM197.055 372.581L195.533 371.864C195.118 371.675 194.765 371.612 194.451 371.7C194.136 371.788 193.91 372.002 193.746 372.355C193.595 372.694 193.57 372.996 193.696 373.298C193.821 373.588 194.098 373.84 194.526 374.053L196.024 374.758L197.055 372.594V372.581ZM198.679 369.146L197.055 368.378C196.628 368.177 196.237 368.114 195.91 368.202C195.571 368.29 195.319 368.517 195.155 368.882C194.979 369.247 194.967 369.599 195.118 369.939C195.269 370.266 195.558 370.53 195.973 370.731L197.571 371.486L198.679 369.146V369.146Z" fill="#FFCF05" />
    <path d="M193.394 365.132L189.254 372.895L184.183 370.19L184.787 369.045L188.436 370.995L189.569 368.869L186.246 367.107L186.838 366L190.16 367.761L191.355 365.522L187.706 363.571L188.31 362.426L193.381 365.132H193.394Z" fill="#FFCF05" />
    <path d="M187.278 361.872L180.005 367.774L178.457 366.842L180.206 357.644L181.679 358.525L181.238 360.639L184.183 362.401L185.844 361.016L187.291 361.885L187.278 361.872ZM183.151 363.244L180.961 361.935L180.181 365.735L183.151 363.244V363.244Z" fill="#FFCF05" />
    <path d="M179.099 356.927L174.179 364.226L171.687 362.54C170.832 361.961 170.228 361.344 169.888 360.665C169.548 359.985 169.41 359.293 169.51 358.563C169.611 357.833 169.913 357.104 170.404 356.374C170.895 355.631 171.461 355.09 172.103 354.725C172.732 354.36 173.436 354.209 174.191 354.285C174.946 354.36 175.752 354.675 176.607 355.254L179.099 356.927V356.927ZM176.998 357.179L175.903 356.437C175.299 356.021 174.745 355.795 174.254 355.757C173.764 355.719 173.323 355.833 172.921 356.097C172.518 356.361 172.14 356.764 171.775 357.292C171.423 357.808 171.197 358.312 171.096 358.79C170.995 359.268 171.058 359.721 171.272 360.161C171.486 360.602 171.901 361.03 172.518 361.445L173.613 362.187L176.998 357.179V357.179Z" fill="#FFCF05" />
    <path d="M168.592 349.34C169.246 349.843 169.712 350.435 169.976 351.102C170.24 351.781 170.303 352.486 170.177 353.228C170.039 353.971 169.699 354.7 169.158 355.418C168.617 356.135 167.988 356.663 167.283 357.003C166.579 357.343 165.849 357.456 165.094 357.368C164.339 357.28 163.596 356.965 162.879 356.412C162.061 355.783 161.52 355.078 161.281 354.273C161.042 353.467 161.105 352.662 161.47 351.844L162.904 352.926C162.766 353.329 162.766 353.732 162.904 354.134C163.043 354.524 163.332 354.889 163.772 355.229C164.477 355.757 165.182 355.946 165.899 355.795C166.616 355.644 167.271 355.179 167.862 354.398C168.453 353.631 168.718 352.888 168.667 352.171C168.617 351.467 168.265 350.863 167.61 350.372C166.981 349.894 166.365 349.692 165.786 349.793C165.207 349.894 164.666 350.196 164.175 350.699L165.949 352.045L165.22 353.002L162.162 350.674L165.094 346.823L166.277 347.717L165.673 348.711C166.151 348.547 166.629 348.509 167.107 348.585C167.585 348.66 168.089 348.9 168.617 349.302L168.592 349.34Z" fill="#FFCF05" />
    <path d="M146.244 324.324L138.87 329.105L136.945 326.148C136.454 325.381 136.24 324.676 136.341 324.047C136.429 323.418 136.756 322.914 137.31 322.562C137.775 322.26 138.228 322.147 138.669 322.21C139.109 322.273 139.499 322.461 139.826 322.751C139.638 322.273 139.612 321.794 139.776 321.304C139.927 320.813 140.229 320.423 140.669 320.133C141.248 319.756 141.865 319.655 142.519 319.831C143.173 320.008 143.752 320.486 144.256 321.253L146.244 324.324V324.324ZM141.085 325.746L140.166 324.336C139.914 323.959 139.638 323.72 139.336 323.632C139.034 323.544 138.706 323.606 138.392 323.808C138.09 324.009 137.901 324.261 137.851 324.588C137.8 324.903 137.901 325.267 138.165 325.658L139.071 327.042L141.085 325.733V325.746ZM144.268 323.682L143.287 322.172C143.022 321.769 142.733 321.518 142.406 321.417C142.079 321.316 141.739 321.379 141.399 321.593C141.059 321.82 140.858 322.109 140.82 322.461C140.77 322.826 140.883 323.204 141.135 323.594L142.104 325.079L144.281 323.669L144.268 323.682Z" fill="#FFCF05" />
    <path d="M141.852 317.478L134.265 321.92L131.37 316.962L132.49 316.308L134.579 319.869L136.655 318.648L134.755 315.402L135.837 314.772L137.738 318.019L139.927 316.735L137.838 313.162L138.958 312.507L141.852 317.465V317.478Z" fill="#FFCF05" />
    <path d="M138.367 311.501L129.08 312.709L128.25 311.098L134.567 304.19L135.359 305.7L133.874 307.261L135.46 310.306L137.599 310.004L138.379 311.489L138.367 311.501ZM134.139 310.507L132.968 308.242L130.313 311.061L134.139 310.507Z" fill="#FFCF05" />
    <path d="M134 303.008L125.985 306.632L124.751 303.901C124.324 302.957 124.147 302.114 124.198 301.359C124.248 300.604 124.512 299.937 124.978 299.371C125.443 298.805 126.085 298.339 126.891 297.974C127.696 297.609 128.476 297.433 129.206 297.458C129.936 297.483 130.603 297.723 131.219 298.176C131.823 298.629 132.339 299.333 132.767 300.264L134.013 302.995L134 303.008ZM132.075 302.114L131.534 300.906C131.232 300.239 130.88 299.748 130.489 299.459C130.099 299.17 129.659 299.031 129.168 299.044C128.69 299.056 128.149 299.207 127.57 299.459C127.004 299.723 126.551 300.025 126.211 300.378C125.871 300.73 125.683 301.158 125.632 301.649C125.594 302.139 125.72 302.718 126.022 303.385L126.563 304.58L132.062 302.089L132.075 302.114Z" fill="#FFCF05" />
    <path d="M122.675 257.393L114.156 257.569L114.081 254.146C114.068 253.265 114.257 252.586 114.647 252.108C115.05 251.63 115.566 251.39 116.207 251.378C116.736 251.378 117.176 251.504 117.503 251.781C117.831 252.057 118.057 252.41 118.183 252.825C118.271 252.334 118.497 251.932 118.875 251.604C119.252 251.277 119.705 251.114 120.209 251.101C120.888 251.101 121.442 251.315 121.895 251.793C122.348 252.271 122.574 252.963 122.6 253.857L122.675 257.393V257.393ZM117.705 255.933L117.667 254.297C117.667 253.857 117.554 253.53 117.34 253.291C117.138 253.064 116.836 252.951 116.472 252.951C116.119 252.951 115.842 253.077 115.628 253.316C115.415 253.555 115.326 253.907 115.339 254.36L115.377 255.971L117.705 255.92V255.933ZM121.379 255.858L121.341 254.121C121.341 253.655 121.215 253.303 121.002 253.051C120.788 252.8 120.473 252.674 120.083 252.687C119.68 252.687 119.378 252.838 119.152 253.114C118.925 253.391 118.825 253.744 118.837 254.197L118.875 255.92L121.379 255.87V255.858Z" fill="#FFCF05" />
    <path d="M122.549 249.503L114.03 249.289L114.169 243.727L115.427 243.752L115.326 247.754L117.667 247.817L117.755 244.18L118.976 244.205L118.888 247.842L121.341 247.905L121.442 243.903L122.7 243.941L122.562 249.503H122.549Z" fill="#FFCF05" />
    <path d="M122.713 242.834L114.446 239.096L114.572 237.347L123.304 234.868L123.179 236.517L121.165 237.045L120.926 240.367L122.839 241.198L122.713 242.821V242.834ZM119.731 239.851L119.907 237.385L116.283 238.367L119.731 239.851Z" fill="#FFCF05" />
    <path d="M137.36 190.537L129.709 186.183L131.458 183.113C131.911 182.32 132.44 181.817 133.044 181.603C133.648 181.389 134.239 181.452 134.818 181.779C135.296 182.056 135.611 182.396 135.749 182.824C135.888 183.251 135.9 183.667 135.8 184.095C136.139 183.705 136.555 183.465 137.058 183.39C137.561 183.302 138.052 183.39 138.505 183.654C139.109 183.994 139.487 184.497 139.625 185.164C139.763 185.831 139.625 186.548 139.159 187.354L137.347 190.525L137.36 190.537ZM133.723 186.624L134.554 185.164C134.78 184.774 134.856 184.422 134.793 184.107C134.73 183.793 134.529 183.541 134.202 183.352C133.874 183.176 133.572 183.126 133.27 183.226C132.968 183.327 132.704 183.591 132.465 184.006L131.647 185.441L133.736 186.624H133.723ZM137.02 188.499L137.901 186.938C138.14 186.523 138.228 186.146 138.165 185.806C138.102 185.466 137.901 185.202 137.549 185.001C137.196 184.799 136.844 184.761 136.504 184.887C136.165 185.013 135.875 185.277 135.649 185.68L134.768 187.215L137.02 188.499Z" fill="#FFCF05" />
    <path d="M141.424 183.491L133.988 178.797L137.058 173.94L138.153 174.632L135.938 178.13L137.977 179.414L139.99 176.243L141.047 176.909L139.034 180.08L141.173 181.439L143.387 177.941L144.482 178.633L141.412 183.491H141.424Z" fill="#FFCF05" />
    <path d="M186.536 138.291L182.521 130.464L185.667 128.854C186.473 128.438 187.19 128.3 187.819 128.463C188.448 128.627 188.901 128.992 189.203 129.583C189.455 130.074 189.53 130.54 189.417 130.968C189.304 131.395 189.077 131.76 188.75 132.062C189.241 131.924 189.732 131.949 190.197 132.163C190.675 132.364 191.028 132.704 191.267 133.17C191.581 133.786 191.619 134.415 191.38 135.045C191.141 135.674 190.613 136.202 189.795 136.618L186.536 138.291V138.291ZM185.642 133.019L187.14 132.251C187.542 132.037 187.806 131.798 187.92 131.496C188.046 131.194 188.008 130.88 187.832 130.54C187.668 130.213 187.429 130.011 187.114 129.923C186.8 129.848 186.435 129.923 186.007 130.125L184.535 130.88L185.63 133.019H185.642ZM187.379 136.391L188.977 135.573C189.405 135.359 189.681 135.082 189.82 134.768C189.958 134.453 189.933 134.113 189.744 133.761C189.556 133.396 189.291 133.17 188.939 133.094C188.587 133.019 188.197 133.082 187.781 133.296L186.208 134.101L187.391 136.404L187.379 136.391Z" fill="#FFCF05" />
    <path d="M133.799 199.157L125.003 191.77L125.62 191.028L129.961 194.677C130.414 192.563 131.496 192.488 131.848 192.525C133.132 192.664 134.252 194.841 133.887 198.251L133.786 199.144L133.799 199.157ZM130.817 195.394L132.994 197.231C133.056 194.866 132.264 193.545 131.748 193.494C131.484 193.469 131.005 193.972 130.804 195.407L130.817 195.394Z" fill="#FFCF05" />
    <path d="M124.563 268.227L113.25 266.226L113.414 265.282L119.001 266.277C118.334 264.213 119.24 263.609 119.567 263.47C120.75 262.942 122.801 264.276 124.185 267.409L124.55 268.24L124.563 268.227ZM120.108 266.465L122.914 266.956C121.782 264.88 120.448 264.125 119.97 264.339C119.718 264.452 119.567 265.119 120.108 266.465V266.465Z" fill="#FFCF05" />
    <path d="M152.171 331.32L141.374 335.246L141.047 334.34L146.382 332.402C144.772 330.943 145.262 329.974 145.464 329.684C146.231 328.64 148.672 328.766 151.441 330.792L152.171 331.32V331.32ZM147.427 332.025L150.107 331.056C148.081 329.823 146.558 329.835 146.244 330.263C146.08 330.477 146.282 331.144 147.427 332.025Z" fill="#FFCF05" />
    <path d="M211.187 371.775L203.8 380.571L203.058 379.954L206.707 375.6C204.593 375.147 204.518 374.053 204.555 373.713C204.694 372.429 206.871 371.309 210.281 371.674L211.174 371.775H211.187ZM207.424 374.757L209.261 372.58C206.896 372.517 205.575 373.31 205.524 373.826C205.499 374.09 206.002 374.569 207.437 374.77L207.424 374.757Z" fill="#FFCF05" />
    <path d="M315.842 140.745L320.863 132.956L325.897 136.202L325.154 137.347L321.543 135.019L320.133 137.196L323.053 139.071L322.323 140.191L319.404 138.316L317.252 141.664L315.83 140.745H315.842Z" fill="#FFCF05" />
    <path d="M367.006 302.806L374.72 306.656L372.229 311.639L371.096 311.073L372.883 307.499L370.731 306.417L369.284 309.299L368.177 308.745L369.624 305.864L366.314 304.215L367.019 302.806H367.006Z" fill="#FFCF05" />
    <path d="M361.835 312.345C362.263 311.59 362.791 311.023 363.42 310.671C364.049 310.319 364.741 310.142 365.484 310.18C366.226 310.218 366.994 310.444 367.761 310.872C368.529 311.3 369.121 311.829 369.536 312.458C369.951 313.087 370.178 313.754 370.203 314.484C370.228 315.214 370.026 315.956 369.599 316.711C369.095 317.617 368.454 318.221 367.686 318.548C366.918 318.875 366.088 318.875 365.194 318.561L366.05 317.051C366.516 317.189 366.944 317.164 367.346 317C367.749 316.824 368.089 316.484 368.378 315.994C368.768 315.302 368.844 314.622 368.592 313.968C368.34 313.313 367.799 312.747 366.981 312.282C366.163 311.816 365.396 311.652 364.716 311.778C364.024 311.904 363.483 312.319 363.093 313.011C362.816 313.515 362.69 313.98 362.741 314.396C362.791 314.811 362.98 315.188 363.32 315.503L362.464 317.013C361.772 316.434 361.369 315.742 361.256 314.912C361.143 314.094 361.344 313.225 361.847 312.332L361.835 312.345Z" fill="#FFCF05" />
    <path d="M357.116 320.171C357.556 319.492 358.097 318.988 358.739 318.674C359.381 318.359 360.06 318.246 360.803 318.322C361.533 318.397 362.275 318.674 363.017 319.139C363.76 319.618 364.326 320.184 364.704 320.851C365.081 321.518 365.257 322.21 365.232 322.965C365.207 323.707 364.955 324.462 364.477 325.205C363.936 326.06 363.269 326.627 362.502 326.929C361.734 327.231 360.941 327.231 360.111 326.929L361.067 325.444C361.47 325.544 361.872 325.519 362.25 325.356C362.627 325.192 362.967 324.877 363.257 324.424C363.722 323.695 363.848 322.99 363.647 322.31C363.445 321.618 362.942 321.014 362.137 320.511C361.331 319.995 360.589 319.794 359.897 319.907C359.205 320.02 358.651 320.398 358.223 321.077C357.808 321.732 357.657 322.348 357.808 322.902C357.946 323.468 358.286 323.971 358.815 324.412L359.997 322.575L360.992 323.216L358.953 326.387L354.964 323.82L355.744 322.6L356.764 323.116C356.575 322.663 356.487 322.197 356.537 321.719C356.575 321.241 356.776 320.738 357.128 320.196L357.116 320.171Z" fill="#FFCF05" />
    <path d="M353.995 325.192L360.966 330.25L359.242 332.629C358.651 333.447 358.022 334.013 357.342 334.328C356.663 334.642 355.983 334.743 355.279 334.617C354.574 334.491 353.869 334.177 353.165 333.661C352.46 333.145 351.944 332.578 351.604 331.949C351.265 331.307 351.151 330.628 351.239 329.886C351.328 329.156 351.68 328.376 352.271 327.558L353.995 325.179V325.192ZM354.171 327.268L353.416 328.313C352.989 328.891 352.749 329.433 352.699 329.898C352.649 330.376 352.737 330.817 352.989 331.219C353.24 331.622 353.618 332.012 354.121 332.377C354.624 332.742 355.103 332.981 355.568 333.094C356.034 333.208 356.487 333.17 356.927 332.968C357.368 332.767 357.795 332.377 358.223 331.798L358.978 330.754L354.184 327.281L354.171 327.268Z" fill="#FFCF05" />
    <path d="M357.669 180.722L365.345 176.092L368.328 181.05L367.195 181.729L365.056 178.181L362.904 179.477L364.641 182.346L363.533 183.013L361.797 180.144L358.5 182.132L357.657 180.722H357.669Z" fill="#FFCF05" />
    <path d="M363.181 190.6C362.753 189.807 362.552 189.027 362.59 188.272C362.627 187.517 362.866 186.825 363.319 186.183C363.772 185.542 364.389 185.013 365.194 184.573C366 184.145 366.792 183.918 367.573 183.893C368.353 183.868 369.07 184.057 369.724 184.434C370.379 184.824 370.92 185.416 371.348 186.209C371.851 187.152 372.04 188.058 371.889 188.914C371.738 189.77 371.285 190.5 370.517 191.104L369.661 189.518C370.039 189.191 370.265 188.801 370.341 188.348C370.416 187.895 370.303 187.404 370.026 186.875C369.636 186.146 369.083 185.705 368.365 185.567C367.648 185.416 366.855 185.567 365.987 186.045C365.119 186.523 364.553 187.077 364.288 187.756C364.024 188.436 364.074 189.141 364.464 189.87C364.741 190.399 365.094 190.764 365.484 190.953C365.886 191.154 366.314 191.192 366.78 191.066L367.635 192.651C366.742 192.941 365.899 192.903 365.119 192.538C364.339 192.173 363.684 191.531 363.181 190.575V190.6Z" fill="#FFCF05" />
    <path d="M377.149 239.222L385.642 238.883L385.856 244.369L384.611 244.419L384.46 240.481L382.081 240.569L382.207 243.752L380.987 243.803L380.861 240.619L377.224 240.758L377.161 239.197L377.149 239.222Z" fill="#FFCF05" />
    <path d="M377.224 249.931C377.237 249.075 377.438 248.333 377.828 247.729C378.206 247.125 378.734 246.659 379.401 246.345C380.068 246.03 380.835 245.879 381.704 245.892C382.572 245.904 383.327 246.093 383.981 246.445C384.636 246.798 385.152 247.276 385.504 247.905C385.869 248.521 386.032 249.264 386.02 250.132C385.995 251.151 385.73 251.982 385.202 252.624C384.673 253.265 383.956 253.656 383.038 253.794L383.075 252.083C383.541 251.995 383.906 251.768 384.183 251.428C384.459 251.089 384.598 250.635 384.61 250.069C384.623 249.276 384.371 248.66 383.843 248.207C383.314 247.754 382.597 247.515 381.653 247.49C380.722 247.477 379.98 247.678 379.451 248.106C378.91 248.547 378.633 249.151 378.621 249.943C378.621 250.51 378.721 250.963 378.961 251.315C379.2 251.667 379.539 251.894 379.967 252.007L379.929 253.718C379.061 253.542 378.382 253.114 377.904 252.448C377.425 251.781 377.199 250.938 377.211 249.918L377.224 249.931Z" fill="#FFCF05" />
    <path d="M376.884 258.966C376.935 258.16 377.161 257.481 377.564 256.902C377.967 256.323 378.508 255.895 379.175 255.606C379.841 255.317 380.609 255.203 381.477 255.266C382.346 255.329 383.113 255.543 383.755 255.933C384.397 256.323 384.887 256.852 385.215 257.506C385.554 258.16 385.68 258.928 385.63 259.809C385.567 260.803 385.265 261.608 384.749 262.237C384.233 262.854 383.541 263.244 382.685 263.383L382.799 261.646C383.201 261.545 383.528 261.331 383.767 261.004C384.019 260.677 384.158 260.249 384.183 259.721C384.246 258.865 384.019 258.198 383.503 257.707C383 257.204 382.27 256.927 381.339 256.864C380.408 256.801 379.665 256.978 379.112 257.405C378.571 257.833 378.269 258.425 378.218 259.217C378.168 259.985 378.331 260.576 378.722 261.004C379.112 261.432 379.64 261.696 380.32 261.822L380.458 259.67L381.628 259.746L381.377 263.458L376.708 263.143L376.809 261.709L377.929 261.659C377.539 261.357 377.262 260.992 377.061 260.564C376.872 260.136 376.796 259.608 376.834 258.966H376.884Z" fill="#FFCF05" />
    <path d="M326.274 352.725L331.282 360.174L326.475 363.408L325.746 362.313L329.193 359.998L327.797 357.909L325.003 359.784L324.286 358.714L327.079 356.839L324.94 353.643L326.299 352.725H326.274Z" fill="#FFCF05" />
    <path d="M316.66 358.726C317.441 358.261 318.208 358.022 318.963 358.022C319.718 358.022 320.423 358.223 321.09 358.638C321.757 359.054 322.31 359.658 322.788 360.438C323.254 361.218 323.531 361.998 323.581 362.778C323.644 363.558 323.493 364.288 323.141 364.955C322.788 365.622 322.222 366.201 321.442 366.667C320.523 367.22 319.63 367.447 318.762 367.346C317.894 367.245 317.139 366.818 316.497 366.088L318.045 365.157C318.384 365.521 318.787 365.723 319.24 365.773C319.693 365.823 320.184 365.698 320.687 365.383C321.392 364.955 321.807 364.376 321.92 363.659C322.033 362.929 321.832 362.149 321.329 361.306C320.825 360.463 320.221 359.922 319.529 359.683C318.837 359.444 318.133 359.544 317.428 359.972C316.912 360.274 316.572 360.639 316.396 361.054C316.22 361.47 316.207 361.897 316.346 362.35L314.798 363.282C314.471 362.401 314.471 361.558 314.798 360.765C315.125 359.972 315.742 359.28 316.66 358.726V358.726Z" fill="#FFCF05" />
    <path d="M308.418 363.357C309.161 362.967 309.916 362.791 310.646 362.842C311.388 362.892 312.067 363.131 312.697 363.584C313.326 364.037 313.854 364.654 314.282 365.471C314.71 366.289 314.924 367.095 314.936 367.887C314.936 368.68 314.735 369.41 314.332 370.077C313.917 370.744 313.313 371.285 312.495 371.713C311.564 372.204 310.671 372.38 309.828 372.266C308.985 372.141 308.255 371.738 307.663 371.046L309.287 370.19C309.601 370.492 309.979 370.668 310.394 370.719C310.809 370.769 311.287 370.643 311.791 370.392C312.583 369.976 313.062 369.398 313.225 368.668C313.389 367.938 313.25 367.132 312.785 366.252C312.319 365.371 311.753 364.805 311.073 364.553C310.394 364.301 309.689 364.364 308.947 364.754C308.23 365.132 307.789 365.61 307.626 366.201C307.462 366.78 307.512 367.409 307.764 368.089L309.777 367.032L310.344 368.127L306.871 369.951L304.58 365.585L305.914 364.88L306.581 365.862C306.644 365.346 306.808 364.893 307.084 364.477C307.361 364.062 307.802 363.71 308.406 363.395L308.418 363.357Z" fill="#FFCF05" />
    <path d="M302.982 366.314L306.694 374.481L303.901 375.752C302.944 376.192 302.076 376.381 301.309 376.318C300.541 376.255 299.862 375.991 299.283 375.525C298.704 375.047 298.226 374.393 297.848 373.575C297.471 372.744 297.295 371.964 297.32 371.222C297.345 370.479 297.584 369.787 298.05 369.171C298.515 368.554 299.22 368.026 300.189 367.585L302.982 366.314ZM302.076 368.277L300.856 368.831C300.176 369.145 299.685 369.498 299.383 369.9C299.081 370.303 298.943 370.756 298.968 371.247C298.981 371.738 299.132 372.279 299.396 372.87C299.66 373.462 299.975 373.915 300.34 374.254C300.705 374.594 301.132 374.795 301.636 374.833C302.139 374.871 302.731 374.745 303.41 374.43L304.631 373.877L302.076 368.265V368.277Z" fill="#FFCF05" />
    <path d="M295.533 369.699L295.772 379.25L294.061 379.93L287.719 372.782L289.342 372.141L290.776 373.814L294.035 372.531L293.96 370.329L295.558 369.699H295.533ZM294.073 373.89L291.657 374.846L294.237 377.841L294.073 373.89V373.89Z" fill="#FFCF05" />
    <path d="M344.168 296.69C345.124 297.244 345.854 297.949 346.357 298.817C346.86 299.685 347.099 300.616 347.087 301.636C347.074 302.642 346.772 303.649 346.193 304.656C345.615 305.662 344.885 306.43 344.017 306.946C343.148 307.462 342.217 307.726 341.21 307.726C340.204 307.726 339.235 307.449 338.278 306.895C337.07 306.203 336.24 305.297 335.787 304.203C335.334 303.108 335.296 301.95 335.674 300.742L337.851 302.001C337.674 302.617 337.712 303.196 337.989 303.75C338.266 304.303 338.694 304.756 339.298 305.109C339.814 305.398 340.355 305.549 340.934 305.536C341.512 305.536 342.079 305.36 342.62 305.021C343.161 304.681 343.639 304.152 344.054 303.435C344.47 302.718 344.683 302.038 344.709 301.397C344.734 300.755 344.595 300.176 344.319 299.673C344.042 299.157 343.639 298.754 343.136 298.465C342.532 298.112 341.928 297.961 341.299 298.012C340.682 298.049 340.153 298.314 339.7 298.792L337.524 297.533C338.354 296.615 339.361 296.074 340.556 295.91C341.752 295.747 342.947 296.011 344.155 296.703L344.168 296.69Z" fill="#FFCF05" />
    <path d="M341.702 188.411C342.52 187.933 343.287 187.681 343.979 187.643C344.671 187.605 345.288 187.744 345.804 188.046C346.332 188.348 346.748 188.763 347.05 189.304C347.591 190.248 347.654 191.204 347.238 192.173C346.823 193.142 345.93 194.023 344.571 194.803L342.016 196.275L342.117 196.452C342.557 197.207 343.086 197.66 343.715 197.798C344.344 197.936 344.986 197.823 345.64 197.446C346.219 197.118 346.634 196.691 346.899 196.162C347.163 195.634 347.175 195.067 346.949 194.463L349.025 193.268C349.365 194.01 349.478 194.753 349.352 195.495C349.226 196.238 348.937 196.93 348.446 197.559C347.968 198.188 347.352 198.729 346.584 199.17C345.225 199.962 343.967 200.214 342.809 199.925C341.651 199.648 340.72 198.893 340.015 197.66L336.555 191.682L338.354 190.638L339.5 192.198C339.462 191.506 339.6 190.827 339.915 190.147C340.229 189.48 340.808 188.902 341.651 188.411H341.702ZM342.268 190.336C341.702 190.663 341.312 191.066 341.072 191.557C340.846 192.047 340.745 192.576 340.783 193.142C340.821 193.708 340.972 194.275 341.236 194.841L343.551 193.507C344.369 193.029 344.873 192.551 345.061 192.06C345.238 191.569 345.212 191.116 344.961 190.688C344.709 190.248 344.332 189.984 343.853 189.921C343.375 189.858 342.847 189.996 342.268 190.323V190.336Z" fill="#FFCF05" />
    <path d="M314.408 128.338L313.213 130.401H310.545L311.476 128.778L310.734 128.35L309.551 130.401H307.6V131.257H309.06L307.751 133.522H305.801V134.378H307.248L306.304 136.014L307.047 136.442L308.242 134.365H310.91L309.966 136.001L310.708 136.429L311.904 134.365H313.854V133.51H312.395L313.703 131.257H315.629V130.401H314.194L315.138 128.766L314.395 128.338H314.408ZM311.413 133.522H308.745L310.054 131.257H312.722L311.413 133.522Z" fill="#FFCF05" />
    <path d="M234.604 471.625L234.686 459.784" stroke="#FFCF05" stroke-width="0.98" stroke-miterlimit="10" />
    <path d="M230.351 474.053L230.433 462.212" stroke="#FFCF05" stroke-width="0.98" stroke-miterlimit="10" />
    <path d="M227.847 471.977L237.184 466.667" stroke="#FFCF05" stroke-width="0.98" stroke-miterlimit="10" />
    <path d="M227.861 467.183L237.21 461.86" stroke="#FFCF05" stroke-width="0.98" stroke-miterlimit="10" />
    <path d="M360.45 167.812L358.387 169.007L356.071 167.673L357.695 166.742L357.267 166L355.216 167.183L353.53 166.214L353.102 166.956L354.36 167.686L352.095 168.995L350.409 168.026L349.981 168.768L351.239 169.498L349.591 170.442L350.019 171.184L352.095 169.989L354.41 171.323L352.775 172.266L353.202 173.009L355.266 171.813L356.952 172.782L357.38 172.04L356.122 171.31L358.387 170.001L360.06 170.97L360.488 170.228L359.242 169.511L360.878 168.567L360.45 167.824V167.812ZM355.266 170.807L352.951 169.473L355.216 168.164L357.531 169.498L355.266 170.807Z" fill="#FFCF05" />
    <path d="M386.196 231.697H383.817L382.484 229.382H384.359V228.526H381.993L381.024 226.84L380.282 227.268L381.011 228.526H378.394L377.425 226.84L376.683 227.268L377.413 228.526H375.512V229.382H377.903L379.237 231.697H377.35V232.553H379.728L380.709 234.239L381.452 233.811L380.722 232.553H383.327L384.296 234.227L385.038 233.799L384.321 232.566H386.208V231.71L386.196 231.697ZM380.219 231.697L378.885 229.382H381.49L382.823 231.697H380.219Z" fill="#FFCF05" />
    <path d="M337.41 355.945L336.215 353.882L337.549 351.566L338.48 353.19L339.222 352.762L338.04 350.711L339.008 349.024L338.266 348.597L337.536 349.855L336.228 347.59L337.196 345.904L336.454 345.476L335.724 346.734L334.78 345.086L334.038 345.514L335.233 347.59L333.9 349.905L332.956 348.269L332.213 348.697L333.409 350.761L332.44 352.447L333.182 352.875L333.912 351.617L335.221 353.882L334.252 355.555L334.994 355.983L335.712 354.737L336.655 356.373L337.398 355.945H337.41ZM334.416 350.761L335.749 348.446L337.058 350.711L335.724 353.026L334.416 350.761Z" fill="#FFCF05" />
    <path d="M378.218 300.05L376.154 298.855V296.187L377.778 297.119L378.205 296.376L376.154 295.193V293.243H375.299V294.703L373.034 293.394V291.443H372.178V292.891L370.542 291.947L370.114 292.689L372.191 293.885V296.552L370.555 295.609L370.127 296.351L372.191 297.546V299.497H373.046V298.037L375.299 299.346V301.271H376.154V299.837L377.79 300.78L378.218 300.038V300.05ZM373.034 297.056V294.388L375.299 295.697V298.364L373.034 297.056Z" fill="#FFCF05" />
    <path d="M356.449 241.563V250.837H358.072V252.863H356.449V254.498C356.449 255.732 356.147 256.612 355.53 257.153C354.914 257.695 354.046 257.959 352.926 257.959H351.743V255.908H352.561C353.089 255.908 353.479 255.794 353.706 255.581C353.932 255.354 354.046 254.989 354.046 254.473V252.85H351.441V250.824H354.033V241.55H356.449V241.563Z" fill="#FFCF05" />
    <path d="M277.048 374.267L276.104 374.808V372.769L277.539 371.964L277.073 371.146L276.117 371.687V370.215H275.186V372.241L273.361 373.273V371.8H272.43V373.814L270.995 374.619L271.461 375.437L272.405 374.896V376.934L270.983 377.74L271.448 378.558L272.38 378.029V379.489H273.311V377.476L275.135 376.444V377.903H276.066V375.903L277.501 375.097L277.035 374.279L277.048 374.267ZM273.336 376.381V374.342L275.16 373.31V375.349L273.336 376.381Z" fill="#FFCF05" />
    <path d="M249.931 382.622C242.997 382.622 234.478 382.069 225.368 380.206L225.494 379.615C248.018 384.195 266.855 380.81 267.044 380.773L267.157 381.364C267.044 381.389 260.237 382.61 249.943 382.61L249.931 382.622Z" fill="#FFCF05" />
    <path d="M276.431 380.798L274.783 390.072L274.003 389.933L274.821 385.353C273.134 385.894 272.631 385.152 272.518 384.887C272.09 383.918 273.185 382.232 275.752 381.1L276.431 380.798V380.798ZM274.984 384.447L275.387 382.144C273.688 383.075 273.072 384.17 273.235 384.56C273.323 384.762 273.877 384.887 274.972 384.447H274.984Z" fill="#FFCF05" />
    <path d="M266.339 383.503L267.082 390.235L264.376 390.537C263.684 390.613 263.131 390.512 262.715 390.223C262.313 389.946 262.086 389.543 262.023 389.04C261.973 388.612 262.049 388.272 262.25 387.983C262.451 387.706 262.703 387.505 263.03 387.379C262.64 387.341 262.3 387.19 262.011 386.913C261.721 386.636 261.558 386.297 261.52 385.894C261.457 385.366 261.608 384.9 261.948 384.51C262.3 384.12 262.816 383.893 263.521 383.805L266.314 383.491L266.339 383.503ZM265.22 384.636L263.848 384.787C263.483 384.824 263.206 384.938 263.03 385.139C262.841 385.328 262.766 385.579 262.804 385.894C262.841 386.209 262.967 386.448 263.206 386.599C263.433 386.75 263.735 386.813 264.087 386.775L265.446 386.624L265.232 384.648L265.22 384.636ZM265.534 387.542L264.251 387.681C263.898 387.719 263.647 387.832 263.483 388.008C263.319 388.184 263.244 388.423 263.282 388.725C263.319 389.002 263.433 389.216 263.634 389.367C263.835 389.505 264.125 389.568 264.49 389.518L265.761 389.38L265.559 387.542H265.534Z" fill="#FFCF05" />
    <path d="M259.834 384.17L260.249 390.927L255.832 391.204L255.769 390.21L258.953 390.009L258.84 388.159L255.958 388.335L255.895 387.366L258.777 387.19L258.651 385.24L255.467 385.441L255.405 384.447L259.821 384.17H259.834Z" fill="#FFCF05" />
    <path d="M254.285 384.51L251.881 391.305H250.484L247.93 384.573H249.251L249.805 386.121L252.447 386.095L252.976 384.522H254.272L254.285 384.51ZM252.133 387.052L250.17 387.077L251.189 389.883L252.133 387.052Z" fill="#FFCF05" />
    <path d="M246.697 384.548L246.395 391.318L244.08 391.217C243.287 391.179 242.645 391.015 242.142 390.713C241.638 390.411 241.273 389.996 241.047 389.48C240.82 388.964 240.72 388.36 240.758 387.681C240.783 387.001 240.934 386.41 241.211 385.919C241.475 385.428 241.877 385.051 242.406 384.787C242.934 384.522 243.589 384.422 244.382 384.447L246.697 384.548V384.548ZM245.413 385.554L244.394 385.504C243.828 385.479 243.375 385.554 243.035 385.718C242.695 385.881 242.456 386.146 242.293 386.485C242.142 386.825 242.054 387.24 242.028 387.731C242.003 388.209 242.054 388.637 242.179 388.99C242.305 389.342 242.532 389.619 242.846 389.82C243.161 390.021 243.614 390.135 244.18 390.16L245.199 390.21L245.401 385.554H245.413Z" fill="#FFCF05" />
    <path d="M236.479 383.767C237.121 383.83 237.649 384.032 238.102 384.371C238.543 384.711 238.87 385.152 239.084 385.693C239.298 386.234 239.361 386.85 239.298 387.542C239.222 388.235 239.021 388.839 238.706 389.329C238.379 389.833 237.951 390.198 237.41 390.449C236.869 390.701 236.265 390.776 235.573 390.713C234.78 390.638 234.151 390.374 233.673 389.946C233.195 389.518 232.906 388.952 232.817 388.272L234.189 388.411C234.265 388.738 234.416 389.002 234.667 389.203C234.919 389.405 235.259 389.531 235.674 389.568C236.353 389.644 236.894 389.48 237.297 389.09C237.712 388.7 237.951 388.134 238.027 387.391C238.102 386.649 237.977 386.058 237.662 385.605C237.335 385.164 236.869 384.9 236.253 384.837C235.649 384.774 235.171 384.887 234.818 385.189C234.478 385.491 234.239 385.907 234.126 386.435L235.825 386.611L235.724 387.53L232.78 387.228L233.157 383.528L234.29 383.642V384.535C234.554 384.233 234.843 384.019 235.196 383.881C235.548 383.742 235.963 383.692 236.479 383.755V383.767Z" fill="#FFCF05" />
    <path d="M228.577 382.71C229.256 382.824 229.81 383.063 230.238 383.428C230.678 383.793 230.98 384.258 231.156 384.824C231.332 385.391 231.37 386.007 231.257 386.687C231.144 387.366 230.917 387.945 230.565 388.423C230.212 388.901 229.785 389.254 229.244 389.468C228.702 389.682 228.111 389.732 227.432 389.619C226.626 389.493 226.01 389.178 225.557 388.7C225.104 388.222 224.877 387.605 224.865 386.863L226.211 387.089C226.236 387.467 226.362 387.782 226.601 388.033C226.84 388.285 227.18 388.448 227.62 388.524C228.237 388.625 228.753 388.499 229.181 388.134C229.596 387.769 229.873 387.228 229.986 386.485C230.099 385.743 230.024 385.152 229.747 384.673C229.47 384.195 229.017 383.906 228.4 383.805C227.96 383.73 227.583 383.767 227.281 383.918C226.979 384.069 226.752 384.309 226.614 384.636L225.267 384.422C225.506 383.755 225.909 383.264 226.488 382.962C227.067 382.66 227.759 382.572 228.551 382.698L228.577 382.71Z" fill="#FFCF05" />
    <path d="M265.207 372.455L265.975 379.137L261.659 379.628L261.545 378.646L264.641 378.294L264.427 376.419L261.923 376.708L261.81 375.739L264.314 375.45L263.986 372.581L265.207 372.442V372.455Z" fill="#FFCF05" />
    <path d="M256.738 373.122C257.418 373.084 258.009 373.185 258.513 373.449C259.016 373.713 259.419 374.091 259.708 374.594C259.997 375.098 260.174 375.689 260.211 376.381C260.249 377.061 260.161 377.677 259.935 378.218C259.708 378.759 259.356 379.187 258.89 379.514C258.425 379.841 257.846 380.018 257.166 380.068C256.361 380.118 255.694 379.955 255.153 379.59C254.612 379.225 254.259 378.684 254.083 377.967L255.442 377.878C255.543 378.243 255.744 378.508 256.021 378.709C256.311 378.898 256.675 378.986 257.116 378.961C257.732 378.923 258.211 378.684 258.538 378.243C258.865 377.803 259.003 377.212 258.966 376.469C258.915 375.739 258.714 375.173 258.336 374.77C257.959 374.368 257.456 374.192 256.839 374.229C256.386 374.254 256.034 374.38 255.782 374.582C255.518 374.796 255.367 375.072 255.304 375.425L253.957 375.5C254.046 374.808 254.335 374.242 254.826 373.827C255.316 373.411 255.971 373.172 256.776 373.122H256.738Z" fill="#FFCF05" />
    <path d="M249.629 373.336C250.258 373.336 250.824 373.474 251.302 373.751C251.781 374.028 252.158 374.431 252.422 374.947C252.687 375.462 252.825 376.054 252.838 376.746C252.838 377.438 252.712 378.055 252.447 378.583C252.183 379.112 251.793 379.527 251.302 379.829C250.799 380.131 250.208 380.282 249.516 380.294C248.723 380.294 248.068 380.118 247.553 379.753C247.037 379.376 246.684 378.86 246.533 378.193H247.905C248.006 378.495 248.194 378.734 248.471 378.91C248.748 379.086 249.088 379.175 249.516 379.162C250.195 379.162 250.711 378.935 251.063 378.508C251.428 378.08 251.604 377.488 251.592 376.746C251.592 376.004 251.403 375.425 251.026 375.022C250.661 374.619 250.17 374.418 249.541 374.431C248.937 374.431 248.471 374.607 248.169 374.934C247.867 375.261 247.678 375.702 247.615 376.243H249.314V377.149L246.37 377.186L246.332 373.487H247.464L247.565 374.355C247.779 374.028 248.056 373.776 248.37 373.6C248.698 373.424 249.113 373.336 249.616 373.323L249.629 373.336Z" fill="#FFCF05" />
    <path d="M245.011 373.399L244.595 380.118L242.305 379.98C241.513 379.93 240.883 379.753 240.393 379.439C239.902 379.124 239.55 378.722 239.336 378.193C239.122 377.677 239.034 377.073 239.071 376.406C239.109 375.739 239.273 375.148 239.55 374.657C239.826 374.166 240.229 373.801 240.758 373.562C241.286 373.311 241.94 373.21 242.721 373.26L245.011 373.399V373.399ZM243.715 374.38L242.708 374.317C242.142 374.28 241.701 374.343 241.362 374.506C241.022 374.67 240.77 374.921 240.619 375.249C240.468 375.576 240.355 375.991 240.33 376.482C240.305 376.96 240.342 377.375 240.468 377.727C240.594 378.08 240.808 378.357 241.122 378.571C241.437 378.772 241.877 378.898 242.444 378.935L243.45 378.998L243.74 374.38H243.715Z" fill="#FFCF05" />
    <path d="M238.92 373.009L235.686 379.401L234.315 379.237L232.654 372.266L233.95 372.417L234.302 374.028L236.907 374.33L237.637 372.845L238.92 372.996V373.009ZM236.467 375.261L234.529 375.035L235.171 377.929L236.467 375.261Z" fill="#FFCF05" />
    <path d="M231.622 372.09L230.477 378.722L226.148 377.979L226.312 377.01L229.432 377.551L229.747 375.727L226.916 375.236L227.079 374.292L229.911 374.783L230.238 372.87L227.117 372.329L227.281 371.36L231.609 372.103L231.622 372.09Z" fill="#FFCF05" />
  </g>
  <defs>
    <clipPath id="clip0_1_1128">
      <rect width="500.001" height="500.001" fill="white" />
    </clipPath>
  </defs>
</svg>
  